<svg width="259" height="260" xmlns="http://www.w3.org/2000/svg" xmlns:xlink="http://www.w3.org/1999/xlink" xml:space="preserve" overflow="hidden"><defs><clipPath id="clip0"><rect x="2720" y="1623" width="259" height="260"/></clipPath></defs><g clip-path="url(#clip0)" transform="translate(-2720 -1623)"><path d="M1350.33 690.444C1360.51 696.377 1373.92 700.558 1389.97 700.704 1406.43 700.897 1420.38 697.682 1430.46 691.303 1440.61 697.648 1454.73 700.957 1471.03 700.704 1486.78 700.498 1500.65 696.377 1510.68 690.524 1510.87 714.16 1510.32 736.705 1510.32 760.234 1510.32 783.598 1511.57 807.86 1505.59 825.723 1502.68 834.492 1498.28 841.843 1493.34 848.727 1488.46 855.552 1482.42 861.531 1475.93 866.464 1469.17 871.604 1461.38 875.246 1453.46 879.235 1446.66 882.657 1439.83 886.192 1433.21 889.788 1432.29 890.294 1431.2 890.627 1430.54 891.519 1426.97 889.115 1423.09 887.191 1419.24 885.174 1415.36 883.183 1411.44 881.145 1407.56 879.155 1403.55 877.104 1399.54 875.359 1395.74 873.335 1391.93 871.331 1388.48 868.994 1385.08 866.371 1371.77 856.204 1361.49 843.034 1355.39 825.504 1352.27 816.449 1351.38 806.095 1350.84 794.876 1350.33 783.824 1350.6 772.052 1350.6 760.581 1350.6 737.211 1350.27 714.24 1350.27 690.697 1350.25 690.571 1350.25 690.444 1350.33 690.444ZM1426.43 698.847C1412.43 705.012 1390.37 706.817 1372.49 703.201 1366.89 702.076 1361.79 700.565 1357.37 698.514 1356.78 698.228 1356.13 697.742 1355.39 697.808 1355.19 719.553 1355.74 742.111 1355.74 763.064 1355.74 773.963 1355.21 785.096 1355.65 795.469 1356.13 805.789 1357.29 815.59 1360.12 824.019 1362.91 832.295 1366.63 839.406 1371.27 845.877 1378.21 855.585 1386.61 863.635 1397.25 869.394 1400.83 871.298 1404.6 873.003 1408.42 874.767 1415.86 878.249 1423.31 881.891 1430.72 885.506 1438.09 881.831 1445.59 878.349 1452.95 874.767 1456.74 872.936 1460.53 871.378 1464.09 869.454 1471.15 865.699 1477.16 860.658 1482.52 854.992 1490.5 846.577 1497.03 836.11 1500.97 823.939 1506.51 806.841 1505.37 785.189 1505.37 763.297 1505.37 741.252 1505.43 719.54 1505.59 697.808 1504.92 697.808 1504.27 698.221 1503.64 698.507 1499.04 700.531 1494.07 702.216 1488.54 703.294 1475.55 705.824 1459.6 705.445 1447.36 702.775 1441.06 701.404 1435.47 699.286 1430.54 696.776 1429.52 697.588 1428.01 698.141 1426.43 698.847Z" fill="#6A005F" fill-rule="evenodd" transform="matrix(1 0 0 1.00129 1419.01 960.999)"/><path d="M1432.47 705.884C1439.41 706.637 1444.62 710.245 1447.76 715.372 1448.18 716.045 1448.86 717.13 1448.79 717.656 1448.7 718.215 1448.28 718.661 1447.76 718.635 1447.06 718.601 1446.87 717.656 1446.36 716.81 1443.72 712.196 1439.44 709.014 1433.32 707.942 1433.61 709.353 1434.25 710.705 1434.79 712.163 1435.31 713.601 1435.85 715.086 1436.35 716.491 1436.59 716.75 1436.32 717.083 1436.35 717.436 1437.46 717.356 1438.69 717.403 1438.51 718.635 1438.27 720.213 1433.53 719.014 1431.77 719.414 1431.58 720.625 1431.74 722.243 1431.68 723.602 1432.65 724.174 1437.23 723.122 1438.15 723.795 1438.43 723.968 1438.54 724.527 1438.51 724.813 1438.25 726.544 1433.61 725.133 1431.77 725.579 1431.5 727.017 1432.16 729.035 1430.72 729.128 1429.35 729.208 1429.73 727.303 1429.7 725.659 1427.97 725.04 1423.23 726.571 1422.87 724.913 1422.4 722.543 1427.95 724.254 1429.6 723.602 1429.77 722.436 1429.77 720.659 1429.6 719.48 1428.07 718.901 1423.19 720.279 1422.87 718.715 1422.62 717.496 1423.83 717.303 1424.96 717.436 1425.2 717.21 1424.83 716.924 1424.96 716.571 1426.08 713.788 1426.99 710.805 1428.16 708.042 1420.76 709.047 1416.08 713.521 1413.74 719.813 1414.55 719.78 1415.76 719.32 1417.36 719.047 1419.06 718.761 1422.51 717.975 1421.5 720.339 1420.1 720.785 1418.51 720.739 1417.08 721.045 1415.66 721.311 1414.39 721.811 1413.2 722.243 1412.97 722.676 1412.91 723.282 1412.84 723.888 1414.09 723.695 1415.4 723.156 1417.08 722.849 1418.27 722.643 1421.85 721.784 1421.5 723.708 1421.34 724.56 1420.31 724.447 1419.51 724.494 1417.2 724.64 1414.31 725.393 1412.84 726.205 1412.78 726.511 1412.84 727.197 1412.94 727.576 1414.35 727.21 1415.38 726.911 1417.17 726.618 1418.29 726.478 1420.98 725.726 1421.24 726.971 1421.61 728.762 1418.45 728.249 1416.93 728.522 1415.28 728.828 1414.29 729.288 1413.29 729.62 1413.66 730.473 1413.68 731.558 1412.84 731.698 1411.12 732.084 1410.92 728.023 1410.86 726.378 1410.79 723.855 1411.14 721.617 1411.66 719.906 1413.93 712.11 1420.02 707.13 1428.93 705.804 1429.57 704.859 1429.57 702.975 1430.82 703.101 1431.93 703.215 1431.82 705.052 1432.47 705.884ZM1431.88 709.926C1431.59 709.193 1431.3 707.562 1430.47 707.702 1429.01 710.705 1428.03 714.194 1426.75 717.436 1427.49 717.469 1428.88 717.403 1429.6 717.436 1429.06 714.54 1432.36 714.367 1431.68 717.436 1432.42 717.436 1433.86 717.436 1434.63 717.436 1433.8 715.212 1432.74 712.336 1431.88 709.926Z" fill="#6A005F" fill-rule="evenodd" transform="matrix(1 0 0 1.00129 1419.01 960.999)"/><path d="M1390.23 713.062C1390.66 713.395 1390.08 713.927 1390.3 714.26 1391.56 714.021 1393.12 714.986 1393.25 715.658 1393.43 716.531 1392.46 717.456 1392.71 718.595 1394.84 719.946 1395.35 722.902 1397.76 723.988 1398.81 725.965 1399.49 728.948 1399.05 731.678 1398.69 733.749 1396.63 733.975 1397.05 736.691 1397.25 737.857 1397.95 740.22 1398.79 740.586 1399.33 740.833 1400.07 740.54 1400.62 740.926 1401.05 741.459 1400.84 742.61 1400.52 743.11 1398.85 743.416 1398.24 745.18 1396.19 744.488 1395.42 744.202 1394.06 743.316 1393.68 742.664 1393.42 742.244 1393.45 741.652 1393.25 741.199 1392.81 740.22 1392.04 739.628 1391.59 738.935 1390.34 739.321 1386.49 738.662 1387.09 740.686 1387.39 741.585 1390.44 741.132 1389.44 743.443 1389.08 744.248 1386.45 745.374 1385.46 745.6 1385.1 745.66 1384.46 745.706 1384.24 745.68 1383.91 745.647 1383.63 745.34 1383.21 745.24 1382.37 745.081 1381.25 745.453 1380.35 745.24 1379.8 745.147 1378.29 744.075 1377.75 743.602 1377.39 743.283 1376.69 742.417 1376.56 742.044 1376.16 741.099 1376.41 740.313 1375.4 739.881 1374.96 739.688 1374.38 739.767 1373.86 739.628 1372.93 739.401 1371.93 738.642 1371.18 739.208 1370.24 740.254 1371.73 740.7 1372.21 741.618 1372.67 742.484 1372.39 743.123 1372.49 744.375 1372.18 744.794 1371.52 745.547 1370.75 745.673 1369.7 745.866 1368.29 745.081 1366.83 744.728 1365.88 744.488 1364.46 744.488 1364.26 743.529 1364.13 742.917 1364.74 742.564 1364.86 742.044 1365.03 741.359 1364.64 740.813 1365.12 740.254 1364.46 739.241 1364.74 737.664 1364.68 735.839 1364.62 733.848 1364.64 732.497 1365.12 731.072 1365.29 730.553 1365.32 729.96 1365.48 729.674 1365.74 729.061 1367.52 727.636 1368.24 727.264 1369.88 726.351 1372.61 725.626 1375.5 726.045 1376.11 726.112 1376.66 726.624 1377.23 726.738 1378.33 726.931 1379.8 726.624 1380.96 726.738 1381.31 726.524 1381.6 726.305 1381.83 725.965 1381.93 724.088 1380.87 723.349 1380.35 722.064 1380.59 720.166 1380.03 718.022 1380.7 716.204 1380.88 715.692 1381.73 714.247 1382.18 713.748 1382.61 713.255 1383.53 712.542 1384.08 712.449 1385.07 712.276 1386.74 712.835 1387.71 713.155 1388.25 712.769 1389.47 712.769 1390.23 713.062ZM1385.1 716.977C1385.97 717.19 1386.3 716.138 1386.68 715.579 1386.45 715.166 1386.58 714.373 1385.97 714.36 1386.05 715.599 1385.46 716.158 1385.1 716.977ZM1381.93 716.611C1382.02 716.737 1382.28 716.717 1382.54 716.717 1382.76 716.204 1382.84 715.519 1383.11 715.086 1382.36 714.84 1381.86 715.998 1381.93 716.611ZM1387.37 716.897C1386.58 717.503 1385.07 718.115 1385.56 719.4 1385.62 719.414 1385.72 719.4 1385.72 719.467 1386.71 719.174 1386.99 718.115 1387.71 717.489 1388.32 716.977 1389.44 716.637 1389.34 715.465 1388.35 715.099 1388 716.371 1387.37 716.897ZM1387.37 720.938C1387.39 720.972 1387.55 721.118 1387.55 721.165 1387.87 721.371 1388.09 720.972 1388.48 720.938 1389.18 720.878 1389.7 721.278 1390.13 721.278 1390.55 720.878 1390.18 720.139 1389.7 720.073 1389.12 721.005 1387.08 719.32 1387.37 720.938ZM1392.89 720.073C1392.45 720.026 1392.27 720.526 1392.3 720.845 1392.37 721.438 1393.43 722.097 1394.03 722.064 1393.84 721.697 1393.33 720.139 1392.89 720.073ZM1385.36 721.371C1384.66 721.651 1384.25 722.29 1384.08 723.076 1384.66 723.315 1384.76 722.496 1385.26 722.416 1385.86 722.736 1385.84 723.655 1386.49 723.881 1386.65 724.134 1387.41 723.781 1387.45 724.134 1387.45 724.6 1386.71 724.6 1386.23 724.84 1385.72 725.1 1384.76 725.852 1383.98 726.338 1382.6 727.124 1380.8 728.149 1382.85 729.061 1383.08 728.888 1382.84 728.455 1382.95 728.242 1383.11 727.829 1384.82 726.624 1385.01 726.591 1385.36 726.524 1385.76 726.784 1386.07 726.738 1386.97 726.624 1387.17 725.759 1387.96 725.419 1388.46 725.532 1388.96 725.626 1389.64 725.612 1390.42 725.885 1390 727.377 1390.92 727.536 1391.34 726.964 1391.01 726.158 1391.53 725.612 1391.45 725.053 1390.94 724.907 1391 724.247 1391.14 723.915 1391.53 723.828 1391.87 723.701 1392.68 724.294 1392.52 725.865 1393.33 726.465 1394.03 726.032 1394.21 724.46 1393.77 723.701 1393.39 723.076 1392.2 722.836 1391.94 722.357 1389.92 722.37 1388.38 722.869 1386.83 723.349 1386.23 722.836 1385.97 721.937 1385.36 721.371ZM1395.32 726.931C1395.96 726.558 1395.61 725.213 1394.9 725.18 1394.6 725.679 1394.6 726.911 1395.32 726.931ZM1387.17 727.683C1387.37 728.149 1388.09 728.049 1388.22 728.549 1387.96 729.514 1388.77 729.993 1388.92 730.812 1388.41 731.551 1387.61 730.879 1387.37 730.38 1386.99 730.446 1386.74 730.639 1386.74 731.072 1388.73 731.198 1387.64 733.509 1386.41 733.908 1386.04 734.075 1385.52 733.908 1385.1 734.008 1384.62 734.135 1384.17 734.681 1383.64 734.874 1382.82 735.16 1382.07 734.927 1381.57 735.327 1381.31 736.339 1381.44 737.59 1382.18 737.57 1382.92 737.537 1382.89 736.079 1383.64 735.839 1384.72 736.012 1384.61 735.16 1385.2 734.974 1385.52 734.84 1385.89 735.067 1386.31 734.974 1387.51 734.634 1387.83 733.076 1388.57 732.177 1390.53 732.417 1391.02 730.719 1391.08 729.334 1389.98 729.547 1388.67 729.694 1388.48 728.742 1388.38 728.056 1389 727.75 1389.18 727.09 1388.67 726.205 1387.31 726.897 1387.17 727.683ZM1371.1 727.956C1370.71 727.956 1370.79 727.49 1370.33 727.603 1370.4 728.262 1369.78 728.262 1369.62 728.628 1369.72 729.095 1370.33 729.095 1370.49 729.514 1371.86 729.481 1372.23 728.482 1373.41 728.296 1373.19 726.691 1371.97 727.43 1371.1 727.956ZM1375.34 727.343C1375.02 727.843 1375.37 728.675 1375.85 728.901 1376.66 728.549 1376.4 727.204 1375.34 727.343ZM1379.84 730.879C1380.21 730.446 1380.03 729.334 1379.39 729.334 1379.13 729.687 1379 731.072 1379.84 730.879ZM1365.9 731.778C1366.44 732.084 1367.73 732.177 1368.15 731.678 1367.84 731.085 1367.84 730.573 1367.89 730.047 1367.02 730.38 1366.19 730.832 1365.9 731.778ZM1380.26 732.177C1380.96 732.304 1382.37 732.483 1382.54 731.778 1382.18 730.879 1380.13 730.926 1380.26 732.177ZM1370.49 733.835C1370.1 733.862 1370.26 733.362 1369.88 733.402 1369.36 733.416 1369.36 733.942 1368.92 734.008 1368.74 733.942 1368.62 733.815 1368.3 733.835 1368.11 734.008 1367.83 734.101 1367.89 734.508 1368.34 734.314 1368.46 734.394 1368.84 734.601 1368.98 734.441 1368.93 734.101 1369.27 734.101 1369.2 735.386 1368.42 736.718 1366.94 736.844 1366.79 737.537 1366.35 737.877 1365.89 738.243 1365.54 739.834 1365.99 741.299 1367.54 741.299 1367.65 741.006 1367.61 740.56 1367.63 740.14 1367.18 739.721 1366.76 739.288 1366.94 738.243 1367.18 738.036 1367.49 737.877 1367.97 737.89 1368.62 737.284 1369.2 736.545 1369.62 735.646 1369.34 734.681 1370.33 734.008 1370.75 734.794 1370.75 735.047 1370.48 735.5 1370.91 735.486 1371.26 735.386 1370.91 735.133 1370.91 734.874 1371.34 734.314 1372.29 734.281 1372.56 733.575 1371.91 732.55 1371.2 733.542 1370.49 733.835ZM1366.31 735.42C1366.79 735.02 1366.96 734.075 1366.67 733.402 1365.8 733.396 1365.64 735.067 1366.31 735.42ZM1377.41 735.646C1377.48 735.966 1378.13 735.806 1378.36 735.739 1378.36 735.633 1378.39 735.546 1378.46 735.486 1378.33 735.28 1378.07 735.147 1377.83 735.047 1377.93 735.486 1377.38 735.28 1377.41 735.646ZM1384.76 736.691C1384.43 736.844 1384.08 736.958 1383.92 737.297 1383.78 737.877 1384.14 738.922 1383.64 739.115 1382.81 738.516 1382.18 738.968 1381.63 739.561 1381.21 739.481 1381.09 739.082 1380.45 739.208 1380.38 739.501 1380.13 740.56 1380.61 740.593 1381.09 740.493 1380.35 739.694 1380.96 739.694 1381.12 740.107 1381.41 740.367 1381.63 740.686 1381.6 741.332 1381.38 742.63 1381.73 743.11 1382.76 742.804 1381.78 740.493 1383.05 740.4 1383.47 740.64 1383.35 741.425 1383.39 742.051 1383.76 742.211 1384.2 742.777 1384.85 742.837 1385.56 742.917 1386.82 742.677 1387.1 742.144 1386.65 741.792 1385.91 741.778 1385.56 741.359 1385.41 741.266 1385.46 740.913 1385.46 740.686 1384.61 740.107 1384.2 738.662 1384.59 737.377 1384.72 736.958 1385.58 736.365 1384.85 735.899 1384.72 736.046 1384.78 736.418 1384.76 736.691ZM1368.66 741.712C1368.66 741.792 1368.66 741.871 1368.66 741.951 1369.43 741.871 1369.61 742.804 1370.24 742.577 1370.04 741.985 1369.3 741.552 1368.66 741.712Z" fill="#6A005F" fill-rule="evenodd" transform="matrix(1 0 0 1.00129 1419.01 960.999)"/><path d="M1491.37 739.248C1490.54 738.702 1489.47 739.468 1488.62 739.661 1487.59 739.921 1486.67 739.901 1486.25 740.806 1486.06 741.219 1486.15 741.685 1486 742.091 1485.3 743.776 1483.7 744.208 1482.43 745.287 1481.58 745.453 1480.57 745.114 1479.54 745.287 1478.85 745.42 1478.52 745.866 1477.41 745.647 1475.83 745.354 1473.67 744.295 1473.32 743.389 1472.65 741.658 1474.51 741.365 1475.63 740.886 1475.93 739.148 1474.69 739.421 1473.23 739.248 1472.54 739.148 1471.73 738.875 1471.35 738.968 1470.97 739.082 1469.93 740.42 1469.59 741.239 1469.39 741.658 1469.43 742.231 1469.24 742.624 1468.74 743.649 1466.78 744.761 1465.67 744.681 1464.27 744.635 1464.03 743.356 1462.44 743.15 1462.08 742.431 1461.95 741.399 1462.44 740.966 1462.83 740.626 1463.91 740.806 1464.39 740.433 1464.98 740.02 1466.31 736.558 1465.85 734.907 1465.55 733.842 1464.19 732.91 1463.97 732.057 1463.91 731.738 1463.88 731.012 1463.88 730.566 1463.88 728.475 1463.93 725.626 1465.17 724.081 1465.67 723.429 1466.59 723.089 1467.22 722.43 1468.36 721.171 1468.52 719.147 1470.19 718.715 1470.14 717.509 1469.81 716.657 1469.59 715.658 1470.22 714.873 1470.88 714.081 1472.48 714.26 1472.74 713.874 1472.14 713.421 1472.55 713.055 1473.23 712.802 1474.48 712.736 1474.92 713.148 1475.82 712.762 1476.85 712.602 1477.84 712.443 1479.59 712.17 1480.58 713.967 1481.23 715.159 1481.71 715.998 1482.11 716.497 1482.26 717.829 1482.32 718.442 1482.27 719.227 1482.26 720.02 1482.26 720.705 1482.34 721.531 1482.26 721.99 1481.96 723.715 1479.53 725.626 1481.67 726.751 1482.8 726.604 1484.1 726.977 1485.3 726.751 1485.93 726.638 1486.53 726.125 1486.93 726.058 1488.2 725.839 1489.76 725.932 1490.76 726.058 1493.26 726.398 1495.21 728.056 1496.79 729.534 1496.82 730.546 1497.56 731.418 1497.74 732.543 1497.98 734.341 1497.92 737.184 1497.66 738.968 1497.52 739.867 1497.2 740.726 1497.49 741.991 1497.61 742.57 1498.11 742.91 1498.07 743.389 1497.98 744.535 1496.57 744.535 1495.37 744.874 1493.22 745.467 1490.95 746.545 1490 744.355 1490.05 743.07 1489.86 742.431 1490.35 741.558 1490.79 740.726 1492.09 740.433 1491.37 739.248ZM1477.66 716.977C1477.7 716.417 1477.06 716.304 1476.9 715.758 1476.75 715.292 1477.11 714.66 1476.63 714.26 1475.58 715.099 1476.49 717.19 1477.66 716.977ZM1480.13 716.717C1480.45 716.75 1480.66 716.671 1480.79 716.531 1480.68 715.772 1480.38 715.179 1479.7 714.986 1479.56 715.465 1480.09 716.078 1480.13 716.717ZM1473.41 715.465C1473.47 716.93 1474.68 717.01 1475.45 717.829 1476.06 718.488 1476.21 719.36 1476.97 719.474 1477.84 718.408 1476.19 717.19 1475.28 716.797 1474.89 716.204 1474.41 715.192 1473.41 715.465ZM1470.6 720.692C1470.6 720.479 1470.28 720.033 1469.93 720.079 1469.55 720.146 1468.89 721.864 1468.89 722.077 1469.52 722.123 1470.63 721.251 1470.6 720.692ZM1474.16 720.432C1473.77 720.479 1473.31 720.02 1473 720.079 1472.62 720.173 1472.18 721.158 1472.8 721.285 1473.18 721.045 1474.57 720.725 1475.11 721.285 1475.63 720.945 1475.38 720.352 1474.92 720.079 1474.54 720.066 1474.59 720.366 1474.16 720.432ZM1477.5 721.384C1476.66 721.771 1476.63 722.956 1475.81 723.362 1474.38 722.783 1472.8 722.396 1470.85 722.363 1470.6 722.942 1469.21 723.202 1468.99 724.001 1468.74 724.82 1468.99 725.932 1469.39 726.478 1470.41 726.032 1470.5 722.396 1471.89 724.407 1471.76 724.92 1471.39 725.193 1471.27 725.726 1471.84 726.112 1471.53 726.944 1471.8 727.556 1472.84 727.556 1472.38 726.058 1473.08 725.726 1473.62 725.592 1474.32 725.592 1474.85 725.433 1475.67 726.025 1476.31 727.137 1477.73 726.604 1478.49 727.397 1479.91 727.703 1479.79 729.081 1480.45 729.081 1480.85 728.375 1480.79 727.976 1480.73 727.157 1479.01 726.478 1478.17 725.979 1477.68 725.679 1477.28 725.259 1476.81 725.013 1476.25 724.74 1475.45 724.773 1475.36 724.148 1475.43 723.861 1475.93 724.021 1476.21 724.001 1476.85 723.695 1476.85 722.716 1477.5 722.43 1477.95 722.51 1478.15 723.282 1478.6 723.089 1478.62 722.49 1478.08 721.704 1477.5 721.384ZM1467.22 726.478C1467.82 727.556 1468.48 725.999 1468.06 725.193 1467.38 725.226 1467.32 725.899 1467.22 726.478ZM1473.6 727.11C1473.83 727.703 1474.29 728.069 1474.33 728.828 1473.98 729.794 1472.58 729.387 1471.7 729.421 1471.9 730.646 1472.14 732.523 1474.16 732.137 1474.83 733.183 1475.33 734.341 1476.41 735 1477.88 734.421 1477.76 735.932 1479.02 735.866 1479.78 736.092 1479.75 737.557 1480.46 737.604 1481.29 737.67 1481.34 736.105 1481.07 735.253 1480.35 734.954 1479.7 735.213 1478.93 734.907 1478.57 734.761 1478.3 734.261 1477.92 734.128 1477.35 733.935 1476.74 734.161 1476.21 733.935 1475.49 733.649 1474.92 732.523 1474.92 731.605 1475.09 731.192 1475.87 731.418 1475.97 730.899 1475.93 730.579 1475.71 730.466 1475.45 730.406 1475.14 730.899 1474.31 731.605 1473.83 730.739 1474.16 730.02 1474.73 729.581 1474.61 728.375 1474.83 728.069 1475.46 728.169 1475.53 727.703 1475.49 726.831 1474.07 726.285 1473.6 727.11ZM1489.06 728.262C1490.16 728.502 1490.63 729.467 1491.96 729.534 1492.09 729.081 1492.78 729.134 1492.88 728.648 1492.62 728.309 1492.07 728.276 1492.12 727.623 1491.61 727.51 1491.74 728.036 1491.27 727.976 1490.45 727.33 1489.41 726.851 1489.06 728.262ZM1486.75 728.921C1487.13 728.635 1487.51 728.009 1487.26 727.363 1486.17 727.204 1485.84 728.648 1486.75 728.921ZM1483.03 729.354C1482.65 729.581 1482.38 730.499 1482.78 730.899 1483.62 731.105 1483.7 729.467 1483.03 729.354ZM1494.24 731.798C1494.79 732.171 1495.78 732.024 1496.46 731.884 1496.24 730.839 1495.37 730.419 1494.5 730.067 1494.58 730.613 1494.5 731.172 1494.24 731.798ZM1480.22 731.944C1480.51 732.41 1481.74 732.364 1482.34 732.204 1482.56 730.899 1480.28 730.852 1480.22 731.944ZM1489.91 733.682C1490.32 734.208 1491.09 734.408 1491.52 734.907 1491.49 735.094 1491.37 735.353 1491.52 735.513 1492.06 735.466 1491.74 735.1 1491.69 734.727 1492.97 733.775 1492.81 736.046 1493.38 736.878 1493.76 737.444 1494.24 737.51 1494.42 737.93 1494.74 737.99 1495.09 738.023 1495.37 738.103 1496.09 739.421 1494.17 740.014 1494.93 741.332 1496.83 741.592 1497.11 738.136 1495.72 737.604 1495.72 737.317 1495.59 737.184 1495.53 736.991 1494.11 736.798 1493.1 735.307 1493.22 734.128 1493.54 734.774 1494.03 734.274 1494.58 734.534 1494.55 734.161 1494.3 734.002 1494 733.862 1493.76 733.875 1493.64 734.035 1493.38 734.035 1493.16 733.842 1493 733.535 1492.62 733.429 1492.25 733.429 1492.34 733.942 1491.89 733.862 1491.33 733.389 1490.41 732.637 1489.91 733.682ZM1496.19 735.353C1496.68 734.874 1496.51 733.456 1495.78 733.422 1495.4 734.002 1495.51 735.16 1496.19 735.353ZM1484.22 735.679C1484.42 735.866 1484.77 735.866 1485.15 735.866 1485.15 735.726 1485.17 735.679 1485.23 735.58 1484.92 735.366 1484.23 734.82 1484.22 735.679ZM1478.17 737.51C1478.01 738.363 1478.17 739.022 1478.08 739.921 1477.63 740.34 1477.16 740.66 1477.26 741.399 1476.81 741.831 1475.9 741.765 1475.63 742.364 1476.72 742.977 1478.58 743.023 1479.29 742.091 1479.4 741.499 1479.15 740.513 1479.79 740.433 1480.87 740.66 1479.93 742.89 1480.99 743.15 1481.3 742.617 1481.2 741.239 1480.99 740.72 1481.39 740.467 1481.39 739.854 1481.93 739.727 1481.99 740.014 1481.74 740.626 1482.08 740.626 1482.43 740.42 1482.38 739.534 1482.18 739.248 1481.47 739.082 1481.47 739.601 1480.9 739.601 1480.59 738.742 1479.7 738.695 1478.93 739.148 1478.64 738.616 1478.84 738.07 1478.77 737.271 1478.14 737.024 1477.95 736.378 1477.73 735.932 1477.41 736.658 1477.95 737.124 1478.17 737.51ZM1492.28 742.704C1492.88 742.524 1493.32 742.191 1493.74 741.831 1493.26 741.499 1492.28 741.978 1492.28 742.704Z" fill="#6A005F" fill-rule="evenodd" transform="matrix(1 0 0 1.00129 1419.01 960.999)"/><path d="M1447.28 719.693C1447.8 719.613 1447.95 719.008 1448.64 719.107 1449.71 719.187 1449.95 722.097 1450.08 723.535 1450.27 726.065 1450.05 732.863 1447.54 730.606 1447.48 730.053 1447.58 729.674 1447.7 729.321 1446.51 728.608 1444.13 728.076 1442.05 727.869 1441 727.789 1439.53 727.929 1439.93 726.505 1440.27 725.366 1442.91 726.098 1443.99 726.238 1445.67 726.524 1446.64 726.811 1447.95 727.19 1448.23 726.964 1448.08 726.318 1448.22 725.905 1447.23 725.166 1443.89 724.281 1441.72 724.134 1440.65 724.061 1439.59 724.181 1439.59 723.109 1439.59 722.616 1439.97 722.476 1440.28 722.157 1443.31 722.203 1445.77 722.809 1448.05 723.595 1448.67 721.451 1445.88 721.178 1444.31 720.785 1442.75 720.419 1441.15 720.339 1439.93 720.199 1439.25 719.853 1439.31 718.442 1440.35 718.408 1442.3 718.362 1446 719.107 1447.28 719.693Z" fill="#6A005F" fill-rule="evenodd" transform="matrix(1 0 0 1.00129 1419.01 960.999)"/><path d="M1434.6 744.315C1432.69 741.765 1438.81 742.025 1439.57 740.706 1438.73 740.26 1437.54 740.054 1436.4 739.907 1435.24 739.741 1434.04 739.614 1432.95 739.614 1433.03 741.372 1433.8 744.381 1431.95 744.914 1430.64 745.26 1426.63 744.881 1426.44 743.935 1426.04 741.765 1429.5 743.183 1431.06 742.977 1431.47 742.025 1431.11 740.447 1430.8 739.614 1427.73 739.348 1424.78 739.954 1422.23 740.526 1422.99 741.752 1425.22 741.439 1425.4 742.63 1425.83 745.26 1421.4 742.597 1420.76 742.178 1418.34 740.753 1416.57 739.108 1414.82 736.718 1414.15 735.793 1412.75 733.995 1412.85 733.049 1412.95 732.104 1414.97 731.565 1416.3 731.205 1424.03 729.068 1432.94 728.249 1441.55 730.047 1442.72 730.293 1444.05 730.752 1445.41 731.205 1446.54 731.565 1448.65 732.037 1448.79 732.87 1448.97 733.962 1446.99 736.545 1446.54 737.177 1444.58 739.874 1442.56 741.552 1439.51 742.977 1438.07 743.622 1436.45 744.362 1434.6 744.315ZM1415.24 733.655C1416.41 735.919 1418.05 737.65 1419.9 739.201 1421.14 738.749 1422.5 738.369 1423.95 738.143 1423.37 737.584 1422.65 737.264 1421.88 736.638 1421.3 736.199 1420.19 735.546 1420.24 734.634 1420.31 733.669 1422.32 733.176 1423.68 732.87 1428.19 731.844 1433.48 731.971 1437.79 732.936 1439.13 733.263 1441.4 733.622 1441.4 734.714 1441.4 735.333 1440.37 736.232 1439.83 736.638 1439.09 737.264 1438.27 737.324 1437.79 738.143 1439.39 738.256 1440.6 738.775 1441.9 739.201 1443.85 737.817 1445.31 735.939 1446.36 733.655 1438.17 730.146 1423.55 730.386 1415.24 733.655ZM1423.34 735.173C1426.69 738.156 1434.85 738.156 1438.2 735.173 1434.21 733.835 1427.32 733.835 1423.34 735.173Z" fill="#6A005F" fill-rule="evenodd" transform="matrix(1 0 0 1.00129 1419.01 960.999)"/><path d="M1373.62 794.311C1373.62 794.124 1373.54 793.884 1373.46 793.525 1373.36 793.192 1373.29 792.946 1373.19 792.846 1373.05 792.626 1372.77 792.466 1372.34 792.406 1371.92 792.34 1371.41 792.293 1370.77 792.293L1361.58 792.293 1361.58 791.521 1371.83 784.084 1365.36 784.084C1364.64 784.084 1364.1 784.117 1363.71 784.21 1363.31 784.29 1363.04 784.417 1362.88 784.636 1362.75 784.763 1362.62 785.042 1362.53 785.455 1362.4 785.861 1362.33 786.134 1362.33 786.254L1361.72 786.254 1361.72 781.234 1362.33 781.234C1362.37 781.387 1362.4 781.654 1362.53 782.006 1362.62 782.379 1362.72 782.606 1362.79 782.699 1362.95 782.905 1363.2 783.058 1363.52 783.105 1363.87 783.185 1364.45 783.245 1365.28 783.245L1371.44 783.245C1371.7 783.245 1371.97 783.185 1372.25 783.092 1372.53 782.998 1372.73 782.885 1372.89 782.725 1373.08 782.492 1373.24 782.206 1373.38 781.88 1373.52 781.534 1373.59 781.227 1373.62 780.994L1374.23 780.994 1374.23 784.523 1364.67 791.428 1370.64 791.428C1371.36 791.428 1371.94 791.408 1372.33 791.301 1372.73 791.234 1372.98 791.081 1373.11 790.888 1373.22 790.735 1373.33 790.495 1373.43 790.116 1373.52 789.736 1373.59 789.457 1373.62 789.284L1374.23 789.284 1374.23 794.311 1373.62 794.311Z" fill="#6A005F" fill-rule="evenodd" transform="matrix(1 0 0 1.00129 1419.01 960.999)"/><path d="M1362.89 808.958 1362.35 803.892 1362.97 803.832C1363.05 804.271 1363.15 804.651 1363.28 804.93 1363.37 805.216 1363.5 805.336 1363.66 805.336 1363.7 805.336 1363.76 805.323 1363.82 805.29 1363.88 805.276 1363.96 805.263 1364.01 805.216L1366.7 803.938 1366.27 799.644C1365.83 799.517 1365.47 799.411 1365.16 799.357 1364.84 799.284 1364.56 799.204 1364.3 799.171 1364.01 799.111 1363.82 799.111 1363.66 799.078 1363.5 799.078 1363.37 799.078 1363.28 799.078 1363.04 799.111 1362.89 799.284 1362.79 799.677 1362.71 800.056 1362.67 800.449 1362.69 800.902L1362.07 800.969 1361.58 796.341 1362.21 796.308C1362.24 796.448 1362.29 796.641 1362.37 796.874 1362.45 797.08 1362.54 797.253 1362.67 797.38 1362.83 797.613 1363.02 797.759 1363.2 797.879 1363.37 797.992 1363.63 798.086 1363.95 798.185 1365.58 798.638 1367.41 799.111 1369.42 799.69 1371.44 800.223 1373.23 800.716 1374.83 801.155L1374.9 801.834 1364.58 806.994C1364.36 807.074 1364.18 807.201 1364.04 807.32 1363.92 807.454 1363.79 807.62 1363.7 807.846 1363.63 807.986 1363.56 808.159 1363.55 808.366 1363.5 808.585 1363.5 808.759 1363.5 808.912L1362.89 808.958ZM1367.44 803.545 1372.09 801.215 1367.09 799.863 1367.44 803.545Z" fill="#6A005F" fill-rule="evenodd" transform="matrix(1 0 0 1.00129 1419.01 960.999)"/><path d="M1377.59 821.662C1377.56 821.516 1377.46 821.263 1377.3 820.936 1377.14 820.65 1376.97 820.424 1376.86 820.29 1376.68 820.131 1376.36 820.051 1375.92 820.051 1375.52 820.071 1374.96 820.151 1374.33 820.29L1365.25 822.275 1365.09 821.529 1373.58 811.868 1367.19 813.253C1366.47 813.399 1365.93 813.572 1365.57 813.752 1365.2 813.945 1364.96 814.138 1364.83 814.351 1364.73 814.511 1364.66 814.818 1364.66 815.237 1364.63 815.703 1364.63 815.989 1364.66 816.089L1364.05 816.249 1362.91 811.209 1363.53 811.062C1363.59 811.222 1363.72 811.468 1363.9 811.821 1364.08 812.174 1364.21 812.367 1364.32 812.447 1364.54 812.64 1364.8 812.707 1365.15 812.707 1365.51 812.707 1366.09 812.64 1366.91 812.447L1373 811.109C1373.27 811.049 1373.53 810.949 1373.79 810.803 1374.02 810.643 1374.2 810.47 1374.31 810.29 1374.47 810.05 1374.57 809.691 1374.64 809.338 1374.67 808.938 1374.68 808.632 1374.65 808.419L1375.27 808.293 1376.06 811.788 1368.14 820.79 1374.02 819.471C1374.77 819.312 1375.28 819.165 1375.68 818.965 1376.05 818.806 1376.26 818.633 1376.36 818.406 1376.42 818.226 1376.49 817.927 1376.5 817.554 1376.52 817.168 1376.52 816.862 1376.49 816.702L1377.1 816.542 1378.23 821.549 1377.59 821.662Z" fill="#6A005F" fill-rule="evenodd" transform="matrix(1 0 0 1.00129 1419.01 960.999)"/><path d="M1381.04 829.179C1380.95 829.039 1380.82 828.873 1380.68 828.7 1380.53 828.533 1380.39 828.393 1380.26 828.267 1380.09 828.127 1379.94 828.054 1379.77 828.1 1379.61 828.114 1379.42 828.16 1379.26 828.267L1373.02 831.816C1372.69 832.002 1372.32 832.142 1371.87 832.202 1371.43 832.282 1370.99 832.282 1370.56 832.202 1370.06 832.082 1369.6 831.909 1369.16 831.616 1368.76 831.323 1368.4 830.89 1368.09 830.384 1367.64 829.612 1367.47 828.839 1367.64 828.054 1367.83 827.295 1368.26 826.709 1369.05 826.276 1369.36 826.096 1369.72 825.996 1370.1 825.996 1370.44 826.03 1370.71 826.216 1370.93 826.556 1371.07 826.862 1371.13 827.108 1371.06 827.388 1371.03 827.668 1370.84 827.881 1370.58 828.054 1370.41 828.147 1370.22 828.207 1370.03 828.24 1369.84 828.267 1369.68 828.267 1369.5 828.267 1369.33 828.253 1369.16 828.253 1368.94 828.253 1368.74 828.24 1368.56 828.253 1368.41 828.267 1368.32 828.453 1368.26 828.7 1368.26 829.006 1368.26 829.299 1368.37 829.612 1368.57 829.978 1368.79 830.351 1369.07 830.584 1369.35 830.71 1369.64 830.844 1369.97 830.89 1370.31 830.844 1370.62 830.817 1370.99 830.71 1371.4 830.537 1371.81 830.351 1372.24 830.164 1372.69 829.905L1378.27 826.709C1378.43 826.602 1378.56 826.496 1378.64 826.403 1378.74 826.263 1378.77 826.096 1378.77 825.863 1378.75 825.663 1378.69 825.43 1378.62 825.171 1378.52 824.918 1378.43 824.731 1378.35 824.565L1378.9 824.272 1381.55 828.873 1381.04 829.179Z" fill="#6A005F" fill-rule="evenodd" transform="matrix(1 0 0 1.00129 1419.01 960.999)"/><path d="M1376.97 843.58 1373.56 839.139 1374.04 838.76C1374.17 838.867 1374.34 839.06 1374.51 839.286 1374.72 839.492 1374.88 839.645 1374.97 839.732 1375.16 839.825 1375.32 839.859 1375.48 839.859 1375.64 839.825 1375.82 839.759 1375.99 839.632L1383.17 834.159C1383.34 834.046 1383.47 833.92 1383.55 833.78 1383.61 833.653 1383.61 833.46 1383.55 833.207 1383.48 833.014 1383.41 832.794 1383.29 832.555 1383.17 832.315 1383.08 832.142 1382.99 831.982L1383.48 831.596 1386.88 836.037 1386.37 836.416C1386.28 836.276 1386.12 836.13 1385.94 835.957 1385.76 835.764 1385.59 835.624 1385.41 835.511 1385.26 835.384 1385.06 835.338 1384.88 835.371 1384.71 835.398 1384.55 835.477 1384.39 835.591L1377.22 841.064C1377.08 841.177 1376.95 841.303 1376.89 841.463 1376.83 841.636 1376.81 841.796 1376.85 842.036 1376.91 842.129 1377 842.355 1377.11 842.575 1377.24 842.848 1377.35 843.054 1377.46 843.194L1376.97 843.58Z" fill="#6A005F" fill-rule="evenodd" transform="matrix(1 0 0 1.00129 1419.01 960.999)"/><path d="M1398.46 847.782C1398.33 847.669 1398.11 847.529 1397.83 847.356 1397.51 847.202 1397.29 847.109 1397.1 847.076 1396.85 847.043 1396.56 847.136 1396.22 847.375 1395.9 847.635 1395.49 847.981 1395.08 848.434L1388.82 854.899 1388.29 854.386 1389.84 842.062 1385.45 846.61C1384.96 847.136 1384.62 847.529 1384.41 847.888 1384.22 848.221 1384.14 848.527 1384.16 848.747 1384.16 848.953 1384.28 849.213 1384.5 849.573 1384.72 849.932 1384.88 850.165 1384.98 850.265L1384.56 850.698 1380.89 847.229 1381.33 846.81C1381.44 846.923 1381.66 847.043 1382.01 847.216 1382.36 847.402 1382.58 847.515 1382.71 847.515 1382.97 847.529 1383.24 847.449 1383.53 847.229 1383.79 847.043 1384.22 846.683 1384.76 846.111L1388.98 841.749C1389.14 841.55 1389.3 841.363 1389.42 841.097 1389.54 840.831 1389.59 840.611 1389.57 840.411 1389.55 840.098 1389.46 839.799 1389.3 839.472 1389.12 839.113 1388.98 838.88 1388.82 838.693L1389.24 838.254 1391.79 840.677 1390.34 852.136 1394.38 847.948C1394.87 847.422 1395.24 846.983 1395.42 846.67 1395.62 846.33 1395.68 846.044 1395.68 845.824 1395.62 845.658 1395.49 845.371 1395.3 845.059 1395.11 844.746 1394.95 844.513 1394.83 844.359L1395.24 843.92 1398.87 847.342 1398.46 847.782Z" fill="#6A005F" fill-rule="evenodd" transform="matrix(1 0 0 1.00129 1419.01 960.999)"/><path d="M1405.44 860.346C1405.31 860.279 1405.12 860.199 1404.93 860.093 1404.71 859.999 1404.54 859.933 1404.38 859.899 1404.17 859.899 1404.01 859.919 1403.85 860.013 1403.72 860.093 1403.58 860.232 1403.45 860.425L1402.91 861.211C1402.53 861.797 1402.25 862.177 1402.15 862.383 1402 862.609 1401.91 862.749 1401.85 862.889 1401 862.749 1400.21 862.556 1399.48 862.27 1398.76 861.97 1398.07 861.657 1397.47 861.264 1396.83 860.785 1396.28 860.252 1395.86 859.6 1395.4 858.941 1395.12 858.242 1394.97 857.503 1394.83 856.69 1394.83 855.905 1395.02 855.079 1395.18 854.26 1395.52 853.408 1396.09 852.615 1396.6 851.823 1397.22 851.191 1397.93 850.705 1398.64 850.212 1399.39 849.879 1400.18 849.706 1400.95 849.533 1401.76 849.533 1402.55 849.686 1403.35 849.846 1404.15 850.179 1404.84 850.651 1405.4 851.051 1405.88 851.457 1406.22 851.903 1406.54 852.329 1406.79 852.729 1407.01 853.155L1407.6 852.855 1408.19 853.261 1405.84 856.883 1405.28 856.47C1405.44 855.998 1405.56 855.572 1405.65 855.066 1405.78 854.573 1405.81 854.113 1405.78 853.627 1405.75 853.168 1405.62 852.729 1405.4 852.329 1405.2 851.936 1404.84 851.557 1404.4 851.237 1403.86 850.911 1403.35 850.685 1402.81 850.625 1402.25 850.558 1401.69 850.625 1401.12 850.844 1400.56 851.037 1399.99 851.384 1399.46 851.903 1398.89 852.396 1398.35 852.982 1397.85 853.707 1397.43 854.353 1397.09 855.019 1396.86 855.711 1396.63 856.391 1396.53 857.056 1396.53 857.676 1396.54 858.288 1396.69 858.894 1396.97 859.447 1397.25 859.966 1397.68 860.439 1398.23 860.838 1398.67 861.118 1399.08 861.338 1399.52 861.404 1399.96 861.497 1400.3 861.564 1400.52 861.497 1400.74 861.264 1400.94 861.058 1401.11 860.785 1401.28 860.532 1401.44 860.312 1401.55 860.159L1401.91 859.586C1402.07 859.38 1402.16 859.187 1402.19 859.001 1402.25 858.814 1402.24 858.608 1402.1 858.415 1401.97 858.242 1401.81 858.022 1401.58 857.815 1401.31 857.596 1401.12 857.423 1400.97 857.343L1401.31 856.77 1405.8 859.826 1405.44 860.346Z" fill="#6A005F" fill-rule="evenodd" transform="matrix(1 0 0 1.00129 1419.01 960.999)"/><path d="M1436.82 862.856C1436.65 862.856 1436.42 862.889 1436.08 862.962 1435.75 863.029 1435.48 863.109 1435.27 863.235 1435.06 863.375 1434.93 863.655 1434.85 864.067 1434.77 864.48 1434.73 864.986 1434.73 865.585L1434.73 870.958C1434.73 871.618 1434.57 872.217 1434.27 872.723 1433.96 873.249 1433.58 873.655 1433.09 873.988 1432.63 874.288 1432.12 874.541 1431.57 874.647 1431.04 874.807 1430.54 874.873 1430.04 874.873 1429.28 874.873 1428.57 874.78 1427.97 874.574 1427.36 874.387 1426.86 874.114 1426.42 873.782 1426.02 873.449 1425.71 873.089 1425.52 872.643 1425.3 872.217 1425.19 871.777 1425.19 871.318L1425.19 864.054C1425.19 863.821 1425.16 863.655 1425.1 863.515 1425.03 863.375 1424.88 863.248 1424.67 863.155 1424.53 863.062 1424.33 862.982 1424.08 862.929 1423.83 862.889 1423.63 862.856 1423.5 862.856L1423.5 862.223 1428.88 862.223 1428.88 862.856C1428.71 862.856 1428.49 862.869 1428.25 862.916 1427.98 862.962 1427.8 863.029 1427.68 863.062 1427.46 863.109 1427.32 863.248 1427.27 863.388 1427.19 863.581 1427.16 863.768 1427.16 863.961L1427.16 870.752C1427.16 871.065 1427.19 871.431 1427.27 871.777 1427.35 872.144 1427.5 872.47 1427.71 872.803 1427.97 873.122 1428.28 873.375 1428.69 873.562 1429.11 873.768 1429.64 873.895 1430.38 873.895 1431.04 873.895 1431.6 873.768 1432.06 873.562 1432.5 873.375 1432.88 873.122 1433.13 872.789 1433.36 872.47 1433.56 872.144 1433.67 871.791 1433.76 871.445 1433.83 871.132 1433.83 870.765L1433.83 865.725C1433.83 865.066 1433.76 864.54 1433.67 864.134 1433.56 863.741 1433.43 863.455 1433.26 863.328 1433.03 863.182 1432.73 863.075 1432.38 862.982 1432 862.916 1431.72 862.856 1431.52 862.856L1431.52 862.223 1436.82 862.223 1436.82 862.856Z" fill="#6A005F" fill-rule="evenodd" transform="matrix(1 0 0 1.00129 1419.01 960.999)"/><path d="M1451.22 856.091C1451.08 856.184 1450.87 856.311 1450.61 856.537 1450.33 856.77 1450.14 856.95 1450.05 857.09 1449.92 857.296 1449.91 857.602 1450.01 857.995 1450.09 858.428 1450.27 858.921 1450.51 859.493L1454.13 867.823 1453.42 868.155 1442.57 861.844 1445.11 867.709C1445.37 868.362 1445.63 868.854 1445.88 869.154 1446.12 869.507 1446.36 869.68 1446.58 869.747 1446.76 869.827 1447.06 869.827 1447.48 869.747 1447.9 869.7 1448.18 869.634 1448.31 869.587L1448.56 870.16 1443.91 872.21 1443.65 871.618C1443.81 871.558 1444.02 871.385 1444.33 871.125 1444.62 870.905 1444.79 870.712 1444.85 870.619 1444.98 870.399 1445 870.093 1444.93 869.747 1444.87 869.414 1444.68 868.901 1444.37 868.122L1441.94 862.529C1441.81 862.29 1441.68 862.037 1441.5 861.844 1441.3 861.651 1441.12 861.511 1440.9 861.431 1440.64 861.364 1440.31 861.291 1439.95 861.318 1439.55 861.351 1439.25 861.397 1439.05 861.497L1438.81 860.905 1442.03 859.493 1452.12 865.372 1449.79 859.953C1449.51 859.3 1449.24 858.807 1449 858.475 1448.77 858.142 1448.54 857.962 1448.32 857.935 1448.12 857.869 1447.87 857.869 1447.47 857.935 1447.11 857.995 1446.82 858.075 1446.64 858.142L1446.4 857.549 1450.99 855.565 1451.22 856.091Z" fill="#6A005F" fill-rule="evenodd" transform="matrix(1 0 0 1.00129 1419.01 960.999)"/><path d="M1463.45 863.701 1458.34 866.218 1458.07 865.645C1458.22 865.579 1458.41 865.432 1458.68 865.306 1458.94 865.139 1459.12 864.993 1459.2 864.906 1459.33 864.733 1459.43 864.567 1459.44 864.407 1459.45 864.24 1459.43 864.047 1459.33 863.868L1455.29 855.565C1455.22 855.372 1455.11 855.205 1454.99 855.112 1454.87 855.026 1454.67 854.992 1454.41 855.012 1454.22 855.026 1453.99 855.079 1453.73 855.112 1453.44 855.192 1453.25 855.259 1453.09 855.325L1452.8 854.753 1457.92 852.236 1458.2 852.809C1458.04 852.888 1457.86 853.022 1457.63 853.155 1457.42 853.281 1457.22 853.428 1457.1 853.588 1456.94 853.741 1456.84 853.954 1456.84 854.133 1456.84 854.28 1456.9 854.46 1456.96 854.64L1460.98 862.935C1461.06 863.115 1461.17 863.262 1461.33 863.342 1461.46 863.455 1461.66 863.488 1461.88 863.475 1462.01 863.475 1462.22 863.441 1462.5 863.342 1462.76 863.275 1463 863.195 1463.18 863.129L1463.45 863.701Z" fill="#6A005F" fill-rule="evenodd" transform="matrix(1 0 0 1.00129 1419.01 960.999)"/><path d="M1469.47 844.04C1469.36 844.166 1469.22 844.306 1469.09 844.479 1468.98 844.652 1468.9 844.859 1468.85 845.005 1468.78 845.225 1468.72 845.411 1468.78 845.651 1468.8 845.858 1468.85 846.124 1468.92 846.39 1469.19 847.369 1469.63 848.86 1470.21 850.844 1470.83 852.855 1471.45 854.939 1472.1 857.123L1471.56 857.562C1469.55 856.344 1467.61 855.179 1465.75 854.007 1463.86 852.868 1462.6 852.116 1461.94 851.703 1461.78 851.623 1461.61 851.543 1461.42 851.497 1461.25 851.484 1461.07 851.484 1460.85 851.497 1460.67 851.53 1460.48 851.577 1460.31 851.65 1460.14 851.737 1459.98 851.83 1459.84 851.89L1459.45 851.417 1463.36 848.241 1463.76 848.714C1463.42 849.013 1463.18 849.286 1462.99 849.506 1462.8 849.739 1462.77 849.919 1462.87 850.039 1462.9 850.105 1462.96 850.165 1463.02 850.199 1463.1 850.265 1463.14 850.312 1463.21 850.345 1463.7 850.658 1464.54 851.131 1465.7 851.843 1466.86 852.582 1468.51 853.561 1470.65 854.846 1470.31 853.741 1469.93 852.429 1469.48 850.924 1469.02 849.426 1468.7 848.414 1468.5 847.862 1468.34 847.309 1468.2 846.976 1468.1 846.816 1468 846.63 1467.9 846.49 1467.84 846.377 1467.76 846.264 1467.64 846.217 1467.48 846.23 1467.33 846.23 1467.18 846.264 1466.99 846.344 1466.8 846.423 1466.61 846.517 1466.43 846.63 1466.27 846.723 1466.12 846.816 1465.97 846.929L1465.57 846.437 1469.09 843.58 1469.47 844.04Z" fill="#6A005F" fill-rule="evenodd" transform="matrix(1 0 0 1.00129 1419.01 960.999)"/><path d="M1483.46 839.819 1486.09 842.329 1479.54 850.239 1479.07 849.859C1479.18 849.713 1479.3 849.506 1479.47 849.266 1479.61 849.013 1479.71 848.86 1479.73 848.727 1479.79 848.554 1479.77 848.394 1479.73 848.254 1479.66 848.095 1479.54 847.948 1479.38 847.822L1472.6 842.089C1472.45 841.962 1472.3 841.883 1472.14 841.849 1472 841.803 1471.82 841.823 1471.61 841.916 1471.45 841.976 1471.29 842.122 1471.07 842.262 1470.85 842.442 1470.69 842.582 1470.56 842.695L1470.11 842.329 1476.2 834.925 1478.47 836.849 1478.06 837.355C1477.65 837.149 1477.11 837.036 1476.51 837.036 1475.87 837.022 1475.43 837.135 1475.18 837.355 1475.03 837.482 1474.91 837.641 1474.72 837.801 1474.56 837.974 1474.37 838.214 1474.16 838.454L1472.96 839.958 1476.67 843.108 1477.58 842.042C1477.86 841.709 1478.04 841.423 1478.12 841.217 1478.18 840.99 1478.18 840.757 1478.12 840.531 1478.09 840.311 1477.98 840.085 1477.8 839.819 1477.65 839.579 1477.49 839.359 1477.33 839.166L1477.74 838.673 1481.43 841.789 1481.03 842.262C1480.79 842.136 1480.53 841.976 1480.23 841.869 1479.95 841.743 1479.69 841.676 1479.51 841.663 1479.22 841.663 1478.97 841.723 1478.78 841.869 1478.56 841.982 1478.36 842.202 1478.12 842.522L1477.2 843.567 1480.07 845.951C1480.36 846.204 1480.57 846.364 1480.78 846.457 1480.99 846.57 1481.17 846.57 1481.37 846.557 1481.53 846.503 1481.73 846.377 1481.93 846.204 1482.08 846.031 1482.34 845.724 1482.67 845.345 1482.76 845.205 1482.94 845.045 1483.13 844.772 1483.34 844.566 1483.5 844.346 1483.61 844.153 1483.76 843.98 1483.85 843.74 1483.96 843.521 1484.07 843.327 1484.1 843.134 1484.07 843.008 1484.07 842.615 1483.92 842.136 1483.65 841.516 1483.41 840.944 1483.2 840.551 1483.06 840.291L1483.46 839.819Z" fill="#6A005F" fill-rule="evenodd" transform="matrix(1 0 0 1.00129 1419.01 960.999)"/><path d="M1494.08 828.347 1492.43 831.23C1490.99 831.356 1489.74 831.469 1488.68 831.609 1487.63 831.709 1486.51 831.869 1485.35 832.055L1484.71 833.167 1488.29 835.038C1488.49 835.131 1488.67 835.191 1488.82 835.211 1489.02 835.211 1489.18 835.165 1489.36 835.018 1489.46 834.938 1489.58 834.785 1489.74 834.579 1489.9 834.386 1490.03 834.179 1490.12 834.006L1490.69 834.306 1488.09 838.92 1487.53 838.62C1487.6 838.494 1487.66 838.301 1487.78 838.047 1487.89 837.808 1487.92 837.655 1487.94 837.542 1487.96 837.348 1487.92 837.209 1487.82 837.049 1487.73 836.909 1487.58 836.796 1487.4 836.669L1479.19 832.388C1479.02 832.322 1478.83 832.262 1478.66 832.228 1478.48 832.195 1478.3 832.262 1478.13 832.388 1478 832.515 1477.87 832.674 1477.72 832.848 1477.56 833.021 1477.41 833.18 1477.34 833.327L1476.77 833.054 1479.61 827.994C1479.88 827.534 1480.15 827.108 1480.47 826.809 1480.81 826.443 1481.17 826.156 1481.58 825.923 1481.96 825.71 1482.38 825.617 1482.85 825.604 1483.28 825.604 1483.76 825.697 1484.24 825.97 1484.68 826.203 1485.03 826.476 1485.29 826.775 1485.55 827.062 1485.73 827.395 1485.85 827.787 1485.95 828.14 1485.98 828.52 1485.98 828.933 1485.95 829.312 1485.88 829.758 1485.79 830.198 1486.84 830.058 1487.73 829.931 1488.42 829.851 1489.12 829.758 1489.97 829.632 1490.99 829.505 1491.44 829.439 1491.81 829.359 1492.03 829.279 1492.31 829.152 1492.51 829.059 1492.71 828.913 1492.87 828.806 1493 828.66 1493.17 828.487 1493.32 828.313 1493.42 828.154 1493.5 828.04L1494.08 828.347ZM1483.36 827.961C1482.67 827.601 1482.02 827.501 1481.4 827.681 1480.81 827.854 1480.29 828.3 1479.91 828.979L1479.16 830.298 1484.04 832.801 1484.59 831.802C1484.99 831.103 1485.09 830.391 1484.89 829.678 1484.68 828.946 1484.17 828.407 1483.36 827.961Z" fill="#6A005F" fill-rule="evenodd" transform="matrix(1 0 0 1.00129 1419.01 960.999)"/><path d="M1490.45 817.481C1490.79 817.294 1491.13 817.194 1491.49 817.168 1491.87 817.135 1492.26 817.168 1492.69 817.294 1493.76 817.547 1494.5 818.16 1494.98 819.125 1495.44 820.091 1495.53 821.136 1495.23 822.301 1495.09 822.807 1494.88 823.346 1494.6 823.833 1494.28 824.359 1493.97 824.725 1493.63 825.051L1494.15 825.577 1493.98 826.269 1489.91 825.304 1490.1 824.625C1490.63 824.625 1491.1 824.565 1491.57 824.465 1492.03 824.405 1492.44 824.265 1492.88 824.059 1493.28 823.833 1493.63 823.553 1493.92 823.233 1494.22 822.887 1494.42 822.474 1494.57 821.942 1494.66 821.555 1494.71 821.183 1494.68 820.896 1494.66 820.563 1494.57 820.31 1494.42 820.091 1494.28 819.838 1494.1 819.651 1493.91 819.491 1493.66 819.345 1493.38 819.219 1493.07 819.125 1492.6 819.032 1492.11 819.032 1491.65 819.185 1491.16 819.365 1490.76 819.698 1490.41 820.171 1490.16 820.503 1489.9 820.863 1489.6 821.309 1489.32 821.702 1489.04 822.095 1488.79 822.414 1488.32 823 1487.8 823.393 1487.21 823.646 1486.63 823.899 1485.95 823.912 1485.18 823.726 1484.73 823.599 1484.34 823.38 1483.98 823.093 1483.66 822.794 1483.37 822.474 1483.16 822.035 1482.95 821.635 1482.82 821.183 1482.78 820.723 1482.73 820.217 1482.76 819.744 1482.89 819.252 1483.04 818.712 1483.23 818.226 1483.51 817.847 1483.79 817.447 1484.08 817.101 1484.42 816.835L1483.92 816.309 1484.08 815.616 1488.02 816.595 1487.85 817.294C1487.38 817.294 1486.92 817.308 1486.47 817.354 1486.01 817.401 1485.61 817.494 1485.19 817.654 1484.81 817.814 1484.5 818.047 1484.2 818.353 1483.92 818.653 1483.73 819.032 1483.58 819.538 1483.45 820.091 1483.51 820.597 1483.73 821.036 1483.98 821.495 1484.36 821.795 1484.82 821.942 1485.34 822.081 1485.79 822.048 1486.2 821.908 1486.6 821.762 1486.97 821.462 1487.29 821.083 1487.58 820.723 1487.85 820.357 1488.1 819.997 1488.35 819.631 1488.6 819.298 1488.86 818.965 1489.07 818.679 1489.32 818.38 1489.59 818.127 1489.85 817.88 1490.13 817.641 1490.45 817.481Z" fill="#6A005F" fill-rule="evenodd" transform="matrix(1 0 0 1.00129 1419.01 960.999)"/><path d="M1498.07 809.325 1497.29 814.951 1496.66 814.864C1496.68 814.678 1496.69 814.465 1496.71 814.158 1496.74 813.852 1496.73 813.659 1496.69 813.493 1496.65 813.319 1496.55 813.153 1496.43 813.04 1496.32 812.927 1496.13 812.867 1495.9 812.833L1486.81 811.622C1486.6 811.602 1486.44 811.622 1486.29 811.622 1486.15 811.681 1485.99 811.815 1485.87 812.054 1485.79 812.214 1485.68 812.414 1485.59 812.687 1485.5 812.927 1485.41 813.153 1485.37 813.333L1484.75 813.253 1485.53 807.627 1486.15 807.707C1486.13 807.873 1486.13 808.093 1486.13 808.352 1486.13 808.625 1486.15 808.838 1486.18 809.045 1486.23 809.258 1486.33 809.418 1486.47 809.538 1486.62 809.631 1486.8 809.697 1486.99 809.697L1496.06 810.956C1496.26 810.989 1496.42 810.956 1496.58 810.909 1496.76 810.843 1496.91 810.696 1497.01 810.49 1497.07 810.39 1497.17 810.197 1497.25 809.937 1497.36 809.664 1497.41 809.418 1497.44 809.225L1498.07 809.325Z" fill="#6A005F" fill-rule="evenodd" transform="matrix(1 0 0 1.00129 1419.01 960.999)"/><path d="M1489.84 794.464 1489.82 795.07C1489.59 795.116 1489.34 795.216 1489.07 795.349 1488.77 795.482 1488.48 795.629 1488.23 795.775 1487.98 795.955 1487.73 796.135 1487.54 796.368 1487.32 796.561 1487.19 796.761 1487.16 796.974 1487.13 797.154 1487.1 797.387 1487.07 797.666 1487.07 797.946 1487.03 798.219 1487.03 798.452L1487 798.991 1496.87 799.357C1497.06 799.357 1497.24 799.337 1497.39 799.258 1497.58 799.191 1497.68 799.024 1497.77 798.831 1497.83 798.732 1497.9 798.518 1497.99 798.159 1498.06 797.813 1498.1 797.566 1498.12 797.367L1498.74 797.387 1498.5 803.445 1497.9 803.412C1497.9 803.266 1497.86 802.973 1497.85 802.64 1497.84 802.28 1497.8 802.067 1497.74 801.921 1497.68 801.741 1497.58 801.555 1497.44 801.461 1497.3 801.361 1497.11 801.308 1496.87 801.295L1486.94 800.902 1486.91 801.441C1486.91 801.641 1486.91 801.834 1486.91 802.134 1486.91 802.393 1486.91 802.673 1486.94 802.906 1486.95 803.119 1487.07 803.332 1487.25 803.559 1487.44 803.772 1487.68 803.985 1487.93 804.165 1488.17 804.351 1488.46 804.544 1488.74 804.69 1489.02 804.844 1489.28 804.937 1489.47 804.99L1489.44 805.629 1486.09 805.496 1486.49 794.311 1489.84 794.464Z" fill="#6A005F" fill-rule="evenodd" transform="matrix(1 0 0 1.00129 1419.01 960.999)"/><path d="M1487.57 780.994C1487.58 781.074 1487.63 781.247 1487.66 781.48 1487.76 781.687 1487.82 781.86 1487.89 781.94 1488.02 782.18 1488.13 782.326 1488.2 782.426 1488.28 782.506 1488.48 782.666 1488.78 782.885 1489.44 783.385 1490.08 783.804 1490.74 784.217 1491.39 784.603 1492.24 785.089 1493.23 785.695 1493.62 785.935 1493.92 786.094 1494.14 786.148 1494.38 786.261 1494.7 786.287 1495.13 786.287L1497.51 786.321C1497.72 786.321 1497.93 786.287 1498.09 786.194 1498.22 786.114 1498.34 785.968 1498.44 785.795 1498.51 785.648 1498.57 785.422 1498.63 785.116 1498.7 784.796 1498.74 784.57 1498.76 784.363L1499.4 784.363 1499.28 790.236 1498.66 790.202C1498.66 790.043 1498.63 789.816 1498.6 789.483 1498.58 789.164 1498.54 788.938 1498.49 788.791 1498.41 788.565 1498.28 788.438 1498.15 788.345 1498 788.245 1497.8 788.212 1497.58 788.212L1494.54 788.185C1494.44 788.145 1494.28 788.212 1494.03 788.325 1493.77 788.438 1493.48 788.551 1493.2 788.711 1492.49 789.064 1491.74 789.45 1490.96 789.85 1490.16 790.269 1489.47 790.635 1488.9 790.955 1488.56 791.115 1488.3 791.274 1488.13 791.468 1487.95 791.601 1487.82 791.76 1487.66 791.954 1487.58 792.093 1487.5 792.273 1487.48 792.466 1487.41 792.659 1487.38 792.832 1487.36 792.979L1486.75 792.979 1486.83 787.619 1487.48 787.619C1487.48 788.232 1487.5 788.664 1487.56 788.938 1487.63 789.164 1487.73 789.29 1487.86 789.304 1487.89 789.304 1487.95 789.29 1488.02 789.257 1488.11 789.224 1488.24 789.164 1488.37 789.111 1488.53 789.031 1488.72 788.938 1488.9 788.838 1489.1 788.744 1489.3 788.651 1489.47 788.538 1490 788.265 1490.54 788.005 1491.05 787.719 1491.57 787.459 1492.25 787.073 1493.1 786.627 1491.63 785.695 1490.49 784.956 1489.65 784.463 1488.85 783.964 1488.35 783.724 1488.19 783.724 1488.05 783.724 1487.94 783.757 1487.86 783.871 1487.78 783.931 1487.73 784.077 1487.66 784.237 1487.6 784.41 1487.56 784.59 1487.55 784.796 1487.54 784.989 1487.54 785.196 1487.5 785.362L1486.87 785.362 1486.96 780.994 1487.57 780.994Z" fill="#6A005F" fill-rule="evenodd" transform="matrix(1 0 0 1.00129 1419.01 960.999)"/><path d="M1425.87 832.262C1425.41 832.262 1425.03 832.461 1424.68 832.854 1424.33 833.24 1424.17 833.753 1424.17 834.386 1424.17 834.932 1424.33 835.398 1424.65 835.744 1424.97 836.09 1425.38 836.257 1425.86 836.257 1426.33 836.257 1426.72 836.09 1427.04 835.744 1427.36 835.398 1427.5 834.898 1427.5 834.286 1427.5 833.667 1427.36 833.187 1427 832.821 1426.72 832.461 1426.32 832.262 1425.87 832.262Z" fill="#6A005F" fill-rule="evenodd" transform="matrix(1 0 0 1.00129 1419.01 960.999)"/><path d="M1433.79 832.262C1433.35 832.262 1432.97 832.461 1432.68 832.921 1432.35 833.44 1432.16 834.452 1432.16 835.937 1432.16 837.408 1432.32 838.354 1432.63 838.84 1432.97 839.346 1433.35 839.586 1433.82 839.586 1434.26 839.586 1434.67 839.346 1435 838.84 1435.31 838.354 1435.48 837.408 1435.48 835.937 1435.48 834.452 1435.31 833.493 1435 833.001 1434.67 832.528 1434.26 832.262 1433.79 832.262Z" fill="#6A005F" fill-rule="evenodd" transform="matrix(1 0 0 1.00129 1419.01 960.999)"/><path d="M1480 750.367C1447.04 750.367 1414.05 750.367 1381.08 750.367 1380.96 750.38 1380.99 750.54 1380.92 750.64 1380.83 763.43 1380.97 776.607 1380.92 789.057 1380.83 801.674 1382.65 813.08 1386.72 822.055 1390.72 830.943 1397.28 837.335 1404.72 842.708 1412.3 848.115 1421.78 851.018 1430.52 855.565 1439.24 850.984 1448.69 848.135 1456.23 842.595 1463.68 837.175 1470.41 830.957 1474.36 821.975 1478.3 812.967 1480.07 801.867 1480.07 788.884 1480.07 776.347 1480.16 763.051 1480 750.367ZM1403.76 806.874C1410.48 803.366 1417.22 799.504 1422.47 794.404 1418.99 795.263 1416.2 795.356 1413.31 795.329 1413.79 794.564 1414.58 794.084 1415.22 793.458 1419.65 789.284 1424.63 785.295 1427.04 778.964 1425.41 779.523 1423.36 779.982 1421.16 779.982 1425.48 774.403 1428.89 767.851 1430.7 759.762 1430.78 759.762 1430.88 759.762 1430.95 759.762 1432.73 767.878 1436.2 774.356 1440.51 779.982 1438.57 779.856 1436.96 779.776 1434.73 778.904 1434.82 779.843 1435.31 780.735 1435.72 781.547 1437.86 785.502 1441.3 788.644 1444.51 791.687 1445.8 792.899 1447.2 793.971 1448.34 795.329 1444.79 795.649 1443.17 795.356 1439.27 794.317 1440.54 795.835 1442.2 796.954 1443.74 798.179 1447.93 801.628 1452.94 804.191 1457.97 806.874 1458.37 807.081 1458.99 807.221 1459.15 807.753 1454.97 808.339 1450.32 808.02 1445.8 806.568 1440.29 804.657 1435.06 804.544 1431.19 808.179 1426.88 804.684 1422.61 804.637 1415.72 806.475 1411.8 807.7 1406.66 808.259 1402.52 807.753 1402.67 807.174 1403.33 807.094 1403.76 806.874ZM1419.05 840.078 1418.02 840.078 1418.02 833.493C1417.77 833.766 1417.43 833.953 1417.02 834.159 1416.64 834.432 1416.3 834.612 1415.96 834.738L1415.96 833.766C1416.54 833.46 1417.02 833.127 1417.47 832.741 1417.91 832.328 1418.21 831.975 1418.39 831.629L1419.05 831.629 1419.05 840.078ZM1428.21 838.261C1427.96 838.9 1427.61 839.392 1427.17 839.712 1426.69 840.045 1426.15 840.225 1425.55 840.225 1424.89 840.225 1424.35 840.045 1423.93 839.665 1423.52 839.313 1423.27 838.8 1423.17 838.114L1424.15 838.021C1424.25 838.5 1424.43 838.847 1424.67 839.06 1424.89 839.299 1425.2 839.379 1425.56 839.379 1425.86 839.379 1426.15 839.299 1426.4 839.153 1426.63 839.013 1426.82 838.82 1426.98 838.567 1427.14 838.307 1427.26 837.988 1427.36 837.588 1427.47 837.175 1427.52 836.763 1427.52 836.316 1427.52 836.25 1427.52 836.19 1427.52 836.077 1427.31 836.443 1427.04 836.716 1426.66 836.909 1426.31 837.115 1425.91 837.222 1425.52 837.222 1424.82 837.222 1424.24 836.956 1423.76 836.456 1423.27 835.93 1423.01 835.278 1423.01 834.452 1423.01 833.62 1423.27 832.921 1423.77 832.395 1424.29 831.882 1424.92 831.629 1425.64 831.629 1426.22 831.629 1426.69 831.769 1427.17 832.042 1427.61 832.328 1427.96 832.761 1428.21 833.334 1428.4 833.873 1428.55 834.639 1428.55 835.697 1428.55 836.763 1428.4 837.621 1428.21 838.261ZM1436.06 838.307C1435.85 838.913 1435.56 839.412 1435.15 839.712 1434.76 840.045 1434.23 840.225 1433.63 840.225 1432.82 840.225 1432.18 839.938 1431.72 839.346 1431.16 838.66 1430.87 837.515 1430.87 835.93 1430.87 834.912 1431 834.119 1431.19 833.52 1431.4 832.907 1431.7 832.441 1432.11 832.135 1432.51 831.769 1433.03 831.629 1433.63 831.629 1434.07 831.629 1434.47 831.709 1434.82 831.882 1435.15 832.042 1435.44 832.328 1435.66 832.661 1435.88 833.027 1436.04 833.427 1436.16 833.926 1436.29 834.419 1436.36 835.085 1436.36 835.93 1436.36 836.902 1436.24 837.721 1436.06 838.307ZM1444.15 840.078 1438.61 840.078C1438.61 839.839 1438.64 839.566 1438.73 839.379 1438.88 838.993 1439.11 838.6 1439.43 838.247 1439.73 837.861 1440.18 837.462 1440.76 836.956 1441.66 836.19 1442.28 835.631 1442.62 835.165 1442.94 834.738 1443.11 834.339 1443.11 833.926 1443.11 833.52 1442.95 833.174 1442.65 832.907 1442.36 832.615 1441.98 832.455 1441.5 832.455 1441.02 832.455 1440.62 832.615 1440.32 832.921 1440.03 833.22 1439.87 833.633 1439.87 834.146L1438.8 834.053C1438.89 833.267 1439.15 832.648 1439.62 832.235 1440.1 831.802 1440.73 831.629 1441.54 831.629 1442.35 831.629 1442.98 831.836 1443.44 832.282 1443.91 832.741 1444.15 833.3 1444.15 833.953 1444.15 834.272 1444.09 834.639 1443.95 834.958 1443.81 835.278 1443.57 835.631 1443.26 835.997 1442.95 836.35 1442.41 836.829 1441.66 837.462 1441.05 837.974 1440.65 838.354 1440.48 838.52 1440.32 838.72 1440.17 838.9 1440.05 839.106L1444.15 839.106 1444.15 840.078ZM1435.68 816.569 1435.94 818.806 1426.34 818.806 1426.63 816.569 1396.52 816.569 1400.27 811.928C1403.46 811.755 1409.6 810.942 1414.87 808.965 1425.1 805.103 1431.32 810.396 1431.32 810.396 1436.22 806.268 1442.36 807.127 1448.06 809.238 1453.41 811.215 1461.6 811.821 1461.6 811.821L1465.13 816.569 1435.68 816.569Z" fill="#6A005F" fill-rule="evenodd" transform="matrix(1 0 0 1.00129 1419.01 960.999)"/><rect x="2720" y="1623" width="259" height="260" fill="#FFFFFF" fill-opacity="0.8"/></g></svg>