<svg width="81" height="82" xmlns="http://www.w3.org/2000/svg" xmlns:xlink="http://www.w3.org/1999/xlink" xml:space="preserve" overflow="hidden"><g transform="translate(-753 -473)"><path d="M422.306 215.931C425.489 217.786 429.681 219.094 434.701 219.139 439.849 219.2 444.213 218.194 447.364 216.199 450.539 218.184 454.953 219.218 460.051 219.139 464.977 219.075 469.317 217.786 472.453 215.956 472.513 223.348 472.338 230.398 472.338 237.757 472.338 245.064 472.732 252.651 470.86 258.238 469.95 260.98 468.576 263.279 467.028 265.432 465.504 267.567 463.614 269.436 461.583 270.979 459.472 272.587 457.034 273.726 454.556 274.973 452.432 276.043 450.295 277.149 448.226 278.274 447.936 278.432 447.597 278.536 447.389 278.815 446.272 278.063 445.061 277.461 443.855 276.831 442.641 276.208 441.417 275.571 440.203 274.948 438.947 274.307 437.694 273.761 436.505 273.128 435.314 272.501 434.235 271.771 433.173 270.95 429.008 267.771 425.793 263.652 423.886 258.169 422.912 255.337 422.633 252.099 422.464 248.591 422.306 245.134 422.389 241.453 422.389 237.865 422.389 230.556 422.285 223.373 422.285 216.01 422.281 215.97 422.281 215.931 422.306 215.931ZM446.104 218.558C441.725 220.487 434.826 221.051 429.233 219.92 427.482 219.568 425.889 219.096 424.505 218.454 424.321 218.365 424.117 218.213 423.888 218.234 423.824 225.034 423.996 232.089 423.996 238.642 423.996 242.05 423.832 245.532 423.967 248.776 424.117 252.004 424.48 255.069 425.367 257.705 426.237 260.293 427.401 262.517 428.854 264.541 431.024 267.577 433.652 270.094 436.977 271.896 438.098 272.491 439.276 273.024 440.471 273.576 442.799 274.665 445.129 275.804 447.445 276.935 449.752 275.785 452.097 274.696 454.397 273.576 455.582 273.003 456.769 272.516 457.881 271.914 460.09 270.74 461.971 269.164 463.645 267.392 466.141 264.76 468.182 261.486 469.417 257.68 471.149 252.333 470.791 245.561 470.791 238.715 470.791 231.82 470.812 225.03 470.86 218.234 470.652 218.234 470.448 218.363 470.25 218.452 468.811 219.085 467.258 219.612 465.529 219.949 461.465 220.741 456.478 220.622 452.651 219.787 450.679 219.358 448.932 218.696 447.389 217.911 447.07 218.165 446.597 218.338 446.104 218.558Z" fill="#6A005F" fill-rule="evenodd" transform="matrix(1 0 0 1.00975 346.126 264.215)"/><path d="M447.992 220.759C450.162 220.995 451.793 222.123 452.773 223.727 452.905 223.937 453.119 224.276 453.098 224.441 453.069 224.616 452.938 224.755 452.773 224.747 452.557 224.736 452.496 224.441 452.336 224.176 451.512 222.733 450.173 221.738 448.259 221.403 448.349 221.844 448.548 222.267 448.719 222.723 448.88 223.173 449.05 223.637 449.206 224.076 449.281 224.158 449.196 224.262 449.206 224.372 449.552 224.347 449.937 224.362 449.881 224.747 449.806 225.24 448.324 224.866 447.774 224.991 447.713 225.369 447.763 225.875 447.747 226.3 448.049 226.479 449.481 226.15 449.771 226.361 449.856 226.415 449.892 226.59 449.881 226.679 449.802 227.221 448.349 226.779 447.774 226.919 447.688 227.368 447.897 227.999 447.447 228.029 447.016 228.054 447.137 227.458 447.126 226.944 446.585 226.75 445.102 227.229 444.992 226.71 444.842 225.969 446.581 226.504 447.095 226.3 447.147 225.936 447.147 225.38 447.095 225.011 446.616 224.83 445.092 225.261 444.992 224.772 444.913 224.391 445.292 224.33 445.644 224.372 445.719 224.301 445.604 224.212 445.644 224.101 445.994 223.231 446.279 222.298 446.645 221.434 444.33 221.748 442.868 223.148 442.135 225.115 442.387 225.105 442.768 224.961 443.268 224.876 443.799 224.786 444.877 224.541 444.561 225.28 444.126 225.419 443.628 225.405 443.178 225.501 442.737 225.584 442.337 225.74 441.966 225.875 441.896 226.011 441.875 226.2 441.854 226.39 442.245 226.329 442.656 226.161 443.178 226.065 443.553 226 444.671 225.732 444.561 226.334 444.511 226.6 444.19 226.565 443.94 226.579 443.218 226.625 442.312 226.86 441.854 227.114 441.835 227.21 441.854 227.425 441.885 227.543 442.327 227.429 442.647 227.335 443.207 227.244 443.557 227.2 444.401 226.964 444.48 227.354 444.596 227.914 443.609 227.754 443.132 227.839 442.616 227.935 442.306 228.079 441.996 228.183 442.11 228.449 442.116 228.789 441.854 228.832 441.315 228.953 441.254 227.683 441.233 227.169 441.213 226.379 441.323 225.68 441.483 225.145 442.195 222.706 444.101 221.149 446.885 220.734 447.087 220.439 447.087 219.849 447.478 219.889 447.824 219.924 447.788 220.499 447.992 220.759ZM447.807 222.023C447.718 221.794 447.628 221.284 447.368 221.328 446.912 222.267 446.606 223.358 446.204 224.372 446.435 224.382 446.87 224.362 447.095 224.372 446.926 223.466 447.957 223.412 447.747 224.372 447.978 224.372 448.428 224.372 448.669 224.372 448.409 223.677 448.078 222.777 447.807 222.023Z" fill="#6A005F" fill-rule="evenodd" transform="matrix(1 0 0 1.00975 346.126 264.215)"/><path d="M434.783 223.004C434.916 223.108 434.737 223.275 434.805 223.379 435.199 223.304 435.686 223.606 435.726 223.816 435.782 224.089 435.48 224.378 435.559 224.734 436.224 225.157 436.384 226.082 437.138 226.421 437.465 227.039 437.679 227.972 437.54 228.826 437.429 229.474 436.786 229.544 436.917 230.394 436.977 230.758 437.198 231.498 437.458 231.612 437.629 231.689 437.86 231.598 438.031 231.718 438.166 231.885 438.102 232.245 438.002 232.401 437.479 232.497 437.288 233.049 436.646 232.832 436.405 232.743 435.982 232.466 435.861 232.262 435.78 232.131 435.79 231.945 435.726 231.804 435.59 231.498 435.349 231.312 435.209 231.096 434.818 231.216 433.612 231.01 433.802 231.643 433.893 231.924 434.847 231.783 434.535 232.505 434.424 232.757 433.602 233.109 433.29 233.18 433.179 233.199 432.979 233.213 432.909 233.205 432.807 233.195 432.717 233.099 432.588 233.068 432.326 233.018 431.974 233.134 431.693 233.068 431.522 233.038 431.049 232.703 430.878 232.555 430.768 232.455 430.547 232.185 430.508 232.068 430.383 231.772 430.462 231.527 430.145 231.391 430.006 231.331 429.825 231.356 429.664 231.312 429.373 231.241 429.061 231.004 428.825 231.181 428.53 231.508 428.996 231.648 429.146 231.935 429.292 232.206 429.202 232.405 429.233 232.797 429.138 232.928 428.931 233.163 428.69 233.203 428.363 233.263 427.922 233.018 427.463 232.907 427.168 232.832 426.722 232.832 426.662 232.532 426.62 232.341 426.812 232.231 426.847 232.068 426.901 231.854 426.78 231.683 426.928 231.508 426.722 231.191 426.812 230.698 426.791 230.127 426.772 229.505 426.78 229.082 426.928 228.637 426.982 228.474 426.993 228.289 427.043 228.199 427.124 228.008 427.68 227.562 427.907 227.446 428.417 227.16 429.271 226.933 430.177 227.064 430.368 227.085 430.539 227.246 430.718 227.281 431.062 227.341 431.522 227.246 431.884 227.281 431.994 227.214 432.084 227.146 432.155 227.039 432.186 226.452 431.855 226.221 431.693 225.819 431.767 225.226 431.593 224.555 431.803 223.987 431.859 223.827 432.126 223.375 432.265 223.219 432.401 223.064 432.688 222.842 432.859 222.812 433.169 222.758 433.691 222.933 433.993 223.033 434.164 222.912 434.545 222.912 434.783 223.004ZM433.179 224.228C433.45 224.295 433.552 223.966 433.673 223.791 433.602 223.662 433.642 223.414 433.45 223.41 433.475 223.797 433.29 223.972 433.179 224.228ZM432.186 224.114C432.215 224.153 432.296 224.147 432.378 224.147 432.446 223.987 432.471 223.772 432.557 223.637 432.321 223.56 432.165 223.922 432.186 224.114ZM433.887 224.203C433.642 224.393 433.169 224.584 433.321 224.986 433.34 224.991 433.371 224.986 433.371 225.007 433.681 224.916 433.769 224.584 433.993 224.389 434.185 224.228 434.537 224.122 434.506 223.756 434.193 223.641 434.085 224.039 433.887 224.203ZM433.887 225.467C433.893 225.478 433.943 225.524 433.943 225.538 434.043 225.603 434.114 225.478 434.235 225.467 434.456 225.449 434.616 225.574 434.751 225.574 434.883 225.449 434.766 225.217 434.616 225.197 434.435 225.488 433.798 224.961 433.887 225.467ZM435.616 225.197C435.476 225.182 435.42 225.338 435.43 225.438 435.451 225.624 435.782 225.83 435.972 225.819 435.911 225.705 435.751 225.217 435.616 225.197ZM433.26 225.603C433.04 225.69 432.913 225.89 432.859 226.136 433.04 226.211 433.073 225.955 433.229 225.93 433.415 226.03 433.41 226.317 433.612 226.388 433.662 226.467 433.902 226.356 433.912 226.467 433.912 226.613 433.681 226.613 433.531 226.688 433.371 226.769 433.073 227.004 432.827 227.156 432.396 227.402 431.834 227.722 432.475 228.008 432.546 227.954 432.471 227.818 432.507 227.752 432.557 227.622 433.09 227.246 433.15 227.235 433.26 227.214 433.385 227.296 433.481 227.281 433.762 227.246 433.827 226.975 434.073 226.869 434.229 226.904 434.385 226.933 434.597 226.929 434.841 227.014 434.712 227.481 434.997 227.531 435.128 227.352 435.026 227.1 435.189 226.929 435.164 226.754 435.003 226.708 435.022 226.502 435.068 226.398 435.189 226.371 435.295 226.331 435.549 226.517 435.499 227.008 435.751 227.196 435.972 227.06 436.028 226.569 435.89 226.331 435.772 226.136 435.399 226.061 435.318 225.911 434.687 225.915 434.204 226.071 433.721 226.221 433.531 226.061 433.45 225.78 433.26 225.603ZM436.373 227.341C436.575 227.225 436.465 226.804 436.244 226.794 436.149 226.95 436.149 227.335 436.373 227.341ZM433.827 227.577C433.887 227.722 434.114 227.691 434.154 227.847 434.073 228.149 434.325 228.299 434.374 228.555 434.214 228.786 433.962 228.576 433.887 228.42 433.769 228.441 433.691 228.501 433.691 228.637 434.314 228.676 433.973 229.399 433.587 229.524 433.471 229.576 433.31 229.524 433.179 229.555 433.029 229.594 432.888 229.765 432.723 229.826 432.465 229.915 432.23 229.842 432.076 229.967 431.994 230.284 432.034 230.675 432.265 230.669 432.496 230.658 432.486 230.202 432.723 230.127 433.058 230.182 433.025 229.915 433.208 229.857 433.31 229.815 433.425 229.886 433.556 229.857 433.933 229.751 434.033 229.263 434.264 228.982 434.876 229.057 435.028 228.526 435.047 228.093 434.706 228.16 434.295 228.206 434.235 227.908 434.204 227.693 434.399 227.598 434.456 227.391 434.295 227.114 433.868 227.331 433.827 227.577ZM428.8 227.662C428.679 227.662 428.704 227.516 428.559 227.552 428.58 227.758 428.388 227.758 428.338 227.872 428.367 228.018 428.559 228.018 428.609 228.149 429.038 228.139 429.152 227.827 429.523 227.768 429.452 227.266 429.071 227.498 428.8 227.662ZM430.127 227.47C430.025 227.627 430.135 227.887 430.287 227.958 430.539 227.847 430.458 227.427 430.127 227.47ZM431.532 228.576C431.649 228.441 431.593 228.093 431.393 228.093 431.311 228.203 431.272 228.637 431.532 228.576ZM427.174 228.857C427.343 228.953 427.745 228.982 427.876 228.826 427.78 228.641 427.78 228.48 427.797 228.316 427.524 228.42 427.264 228.562 427.174 228.857ZM431.663 228.982C431.884 229.022 432.326 229.078 432.378 228.857 432.265 228.576 431.624 228.591 431.663 228.982ZM428.609 229.501C428.488 229.509 428.538 229.353 428.417 229.365 428.257 229.37 428.257 229.534 428.117 229.555 428.061 229.534 428.026 229.494 427.926 229.501 427.865 229.555 427.776 229.584 427.795 229.711 427.936 229.651 427.976 229.676 428.092 229.74 428.136 229.69 428.121 229.584 428.228 229.584 428.207 229.986 427.961 230.402 427.499 230.442 427.453 230.658 427.314 230.765 427.172 230.879 427.062 231.377 427.203 231.835 427.686 231.835 427.72 231.743 427.709 231.604 427.715 231.473 427.574 231.341 427.443 231.206 427.499 230.879 427.574 230.815 427.67 230.765 427.822 230.769 428.026 230.579 428.207 230.348 428.338 230.067 428.248 229.765 428.559 229.555 428.69 229.801 428.69 229.88 428.605 230.021 428.74 230.017 428.85 229.986 428.74 229.907 428.74 229.826 428.875 229.651 429.171 229.64 429.256 229.419 429.052 229.099 428.831 229.409 428.609 229.501ZM427.303 229.996C427.453 229.871 427.505 229.576 427.413 229.365 427.143 229.363 427.093 229.886 427.303 229.996ZM430.774 230.067C430.795 230.167 430.999 230.117 431.07 230.096 431.07 230.063 431.08 230.036 431.101 230.017 431.062 229.953 430.98 229.911 430.905 229.88 430.935 230.017 430.764 229.953 430.774 230.067ZM433.073 230.394C432.969 230.442 432.859 230.477 432.809 230.583 432.767 230.765 432.877 231.092 432.723 231.152 432.461 230.965 432.265 231.106 432.094 231.291 431.963 231.266 431.924 231.142 431.724 231.181 431.703 231.273 431.624 231.604 431.774 231.614 431.924 231.583 431.693 231.333 431.884 231.333 431.934 231.462 432.026 231.543 432.094 231.643 432.084 231.845 432.015 232.251 432.126 232.401 432.446 232.305 432.14 231.583 432.538 231.554 432.667 231.629 432.632 231.874 432.644 232.07 432.759 232.12 432.898 232.297 433.1 232.316 433.321 232.341 433.716 232.266 433.804 232.099 433.662 231.989 433.431 231.985 433.321 231.854 433.275 231.824 433.29 231.714 433.29 231.643 433.025 231.462 432.898 231.01 433.019 230.608 433.061 230.477 433.329 230.292 433.1 230.146 433.058 230.192 433.079 230.309 433.073 230.394ZM428.036 231.964C428.036 231.989 428.036 232.014 428.036 232.039 428.278 232.014 428.334 232.305 428.53 232.235 428.469 232.049 428.238 231.914 428.036 231.964Z" fill="#6A005F" fill-rule="evenodd" transform="matrix(1 0 0 1.00975 346.126 264.215)"/><path d="M466.412 231.194C466.154 231.023 465.819 231.262 465.552 231.323 465.232 231.404 464.944 231.398 464.811 231.681 464.753 231.81 464.782 231.956 464.734 232.083 464.515 232.609 464.013 232.745 463.618 233.082 463.351 233.134 463.035 233.028 462.714 233.082 462.497 233.124 462.393 233.263 462.048 233.195 461.554 233.103 460.878 232.772 460.769 232.489 460.559 231.947 461.14 231.856 461.49 231.706 461.585 231.162 461.198 231.248 460.74 231.194 460.523 231.162 460.272 231.077 460.153 231.106 460.034 231.142 459.709 231.56 459.601 231.816 459.541 231.947 459.551 232.126 459.493 232.249 459.335 232.57 458.722 232.918 458.377 232.893 457.937 232.878 457.864 232.478 457.365 232.414 457.252 232.189 457.213 231.866 457.365 231.731 457.488 231.625 457.825 231.681 457.977 231.564 458.16 231.435 458.575 230.352 458.431 229.836 458.337 229.503 457.912 229.211 457.844 228.945 457.825 228.845 457.814 228.618 457.814 228.478 457.814 227.824 457.833 226.933 458.218 226.45 458.377 226.246 458.664 226.14 458.86 225.934 459.216 225.54 459.266 224.907 459.789 224.772 459.774 224.395 459.67 224.128 459.601 223.816 459.799 223.57 460.005 223.323 460.505 223.379 460.588 223.258 460.401 223.116 460.528 223.002 460.74 222.923 461.132 222.902 461.269 223.031 461.55 222.91 461.871 222.86 462.181 222.81 462.729 222.725 463.039 223.287 463.243 223.66 463.391 223.922 463.518 224.078 463.564 224.495 463.582 224.687 463.568 224.932 463.564 225.18 463.564 225.394 463.589 225.653 463.564 225.796 463.47 226.336 462.71 226.933 463.38 227.285 463.732 227.239 464.14 227.356 464.515 227.285 464.713 227.25 464.9 227.089 465.023 227.069 465.423 227 465.908 227.029 466.223 227.069 467.004 227.175 467.616 227.693 468.109 228.156 468.118 228.472 468.351 228.745 468.405 229.097 468.482 229.659 468.463 230.548 468.38 231.106 468.336 231.387 468.236 231.656 468.326 232.051 468.365 232.233 468.521 232.339 468.509 232.489 468.482 232.847 468.038 232.847 467.664 232.953 466.993 233.138 466.281 233.476 465.985 232.791 466 232.389 465.942 232.189 466.094 231.916 466.233 231.656 466.637 231.564 466.412 231.194ZM462.127 224.228C462.137 224.053 461.939 224.018 461.889 223.847 461.842 223.702 461.954 223.504 461.802 223.379 461.475 223.641 461.758 224.295 462.127 224.228ZM462.897 224.147C462.997 224.158 463.064 224.133 463.103 224.089 463.07 223.852 462.976 223.666 462.764 223.606 462.72 223.756 462.887 223.947 462.897 224.147ZM460.796 223.756C460.815 224.214 461.194 224.239 461.436 224.495 461.625 224.701 461.673 224.974 461.91 225.009 462.181 224.676 461.665 224.295 461.381 224.172 461.259 223.987 461.111 223.67 460.796 223.756ZM459.918 225.39C459.918 225.324 459.818 225.184 459.709 225.199 459.591 225.22 459.382 225.757 459.382 225.823 459.58 225.838 459.928 225.565 459.918 225.39ZM461.032 225.309C460.909 225.324 460.765 225.18 460.667 225.199 460.549 225.228 460.411 225.536 460.607 225.576 460.726 225.501 461.161 225.401 461.327 225.576 461.49 225.469 461.413 225.284 461.269 225.199 461.15 225.195 461.165 225.288 461.032 225.309ZM462.077 225.607C461.812 225.728 461.802 226.098 461.546 226.225 461.1 226.044 460.607 225.923 459.995 225.913 459.918 226.094 459.482 226.175 459.414 226.425 459.335 226.681 459.414 227.029 459.541 227.2 459.857 227.06 459.886 225.923 460.322 226.552 460.282 226.713 460.163 226.798 460.128 226.964 460.307 227.085 460.207 227.346 460.292 227.537 460.617 227.537 460.474 227.069 460.692 226.964 460.863 226.923 461.082 226.923 461.248 226.873 461.504 227.058 461.702 227.406 462.148 227.239 462.385 227.487 462.829 227.583 462.793 228.014 462.997 228.014 463.124 227.793 463.103 227.668 463.085 227.412 462.547 227.2 462.285 227.044 462.131 226.95 462.008 226.819 461.86 226.742 461.683 226.656 461.436 226.667 461.406 226.471 461.427 226.381 461.585 226.431 461.673 226.425 461.871 226.329 461.871 226.023 462.077 225.934 462.216 225.959 462.279 226.2 462.418 226.14 462.425 225.953 462.256 225.707 462.077 225.607ZM458.862 227.2C459.049 227.537 459.255 227.05 459.122 226.798 458.91 226.808 458.891 227.019 458.862 227.2ZM460.855 227.398C460.927 227.583 461.071 227.697 461.086 227.935 460.973 228.237 460.538 228.11 460.263 228.12 460.326 228.503 460.401 229.09 461.032 228.97 461.24 229.297 461.398 229.659 461.733 229.865 462.196 229.684 462.158 230.157 462.552 230.136 462.789 230.207 462.779 230.665 463.001 230.679 463.262 230.7 463.276 230.211 463.193 229.944 462.966 229.851 462.764 229.932 462.522 229.836 462.41 229.79 462.325 229.634 462.206 229.592 462.029 229.532 461.837 229.603 461.673 229.532 461.446 229.442 461.269 229.09 461.269 228.803 461.323 228.674 461.565 228.745 461.596 228.582 461.585 228.482 461.515 228.447 461.436 228.428 461.338 228.582 461.077 228.803 460.927 228.532 461.032 228.308 461.211 228.17 461.171 227.793 461.24 227.697 461.438 227.729 461.461 227.583 461.446 227.31 461.002 227.139 460.855 227.398ZM465.69 227.758C466.035 227.833 466.183 228.135 466.598 228.156 466.637 228.014 466.856 228.031 466.885 227.879 466.806 227.772 466.633 227.762 466.647 227.558 466.489 227.523 466.529 227.687 466.381 227.668 466.125 227.466 465.8 227.316 465.69 227.758ZM464.969 227.964C465.088 227.874 465.207 227.679 465.127 227.477 464.788 227.427 464.684 227.879 464.969 227.964ZM463.805 228.099C463.686 228.17 463.603 228.457 463.726 228.582 463.988 228.647 464.013 228.135 463.805 228.099ZM467.31 228.864C467.482 228.98 467.793 228.934 468.005 228.891 467.936 228.564 467.664 228.432 467.393 228.322 467.418 228.493 467.393 228.668 467.31 228.864ZM462.926 228.909C463.016 229.055 463.401 229.04 463.589 228.991 463.657 228.582 462.945 228.568 462.926 228.909ZM465.956 229.453C466.085 229.617 466.327 229.68 466.46 229.836 466.45 229.894 466.412 229.975 466.46 230.025 466.629 230.011 466.529 229.896 466.514 229.78 466.914 229.482 466.864 230.192 467.043 230.452 467.16 230.629 467.31 230.65 467.368 230.781 467.466 230.8 467.576 230.81 467.664 230.835 467.891 231.248 467.289 231.433 467.526 231.845 468.12 231.927 468.207 230.846 467.774 230.679 467.774 230.59 467.734 230.548 467.714 230.488 467.27 230.427 466.954 229.961 466.993 229.592 467.091 229.794 467.245 229.638 467.418 229.719 467.407 229.603 467.328 229.553 467.235 229.509 467.162 229.513 467.122 229.563 467.043 229.563 466.974 229.503 466.924 229.407 466.806 229.374 466.687 229.374 466.718 229.534 466.575 229.509 466.4 229.361 466.114 229.126 465.956 229.453ZM467.92 229.975C468.074 229.826 468.02 229.382 467.793 229.372 467.674 229.553 467.707 229.915 467.92 229.975ZM464.176 230.077C464.238 230.136 464.349 230.136 464.467 230.136 464.467 230.092 464.476 230.077 464.494 230.046 464.397 229.98 464.18 229.809 464.176 230.077ZM462.285 230.65C462.235 230.917 462.285 231.123 462.256 231.404 462.116 231.535 461.969 231.635 462 231.866 461.86 232.001 461.575 231.981 461.49 232.168 461.831 232.36 462.414 232.374 462.635 232.083 462.67 231.897 462.591 231.589 462.793 231.564 463.128 231.635 462.837 232.333 463.168 232.414 463.264 232.247 463.233 231.816 463.168 231.654 463.293 231.575 463.293 231.383 463.462 231.343 463.48 231.433 463.401 231.625 463.509 231.625 463.618 231.56 463.603 231.283 463.539 231.194 463.318 231.142 463.318 231.304 463.139 231.304 463.041 231.035 462.764 231.021 462.522 231.162 462.433 230.996 462.493 230.825 462.473 230.575 462.275 230.498 462.216 230.296 462.148 230.157 462.048 230.384 462.216 230.529 462.285 230.65ZM466.697 232.274C466.885 232.218 467.022 232.114 467.156 232.001 467.004 231.897 466.697 232.047 466.697 232.274Z" fill="#6A005F" fill-rule="evenodd" transform="matrix(1 0 0 1.00975 346.126 264.215)"/><path d="M452.623 225.078C452.786 225.053 452.834 224.863 453.05 224.895 453.383 224.92 453.46 225.83 453.5 226.279 453.56 227.071 453.49 229.197 452.707 228.491 452.688 228.318 452.717 228.199 452.757 228.089 452.384 227.866 451.638 227.7 450.989 227.635 450.66 227.61 450.2 227.654 450.327 227.208 450.431 226.852 451.257 227.081 451.595 227.125 452.12 227.214 452.424 227.304 452.834 227.423 452.921 227.352 452.873 227.15 452.917 227.021 452.609 226.79 451.566 226.513 450.885 226.467 450.552 226.444 450.218 226.481 450.218 226.146 450.218 225.992 450.337 225.948 450.435 225.848 451.384 225.863 452.153 226.052 452.865 226.298 453.061 225.628 452.188 225.542 451.697 225.419 451.207 225.305 450.708 225.28 450.327 225.236 450.112 225.128 450.131 224.687 450.458 224.676 451.066 224.662 452.226 224.895 452.623 225.078Z" fill="#6A005F" fill-rule="evenodd" transform="matrix(1 0 0 1.00975 346.126 264.215)"/><path d="M448.659 232.778C448.061 231.981 449.975 232.062 450.214 231.65 449.95 231.51 449.577 231.446 449.221 231.4 448.859 231.348 448.484 231.308 448.144 231.308 448.169 231.858 448.409 232.799 447.83 232.966 447.422 233.074 446.166 232.955 446.106 232.659 445.981 231.981 447.064 232.424 447.551 232.36 447.68 232.062 447.568 231.568 447.472 231.308 446.51 231.225 445.587 231.414 444.79 231.593 445.027 231.977 445.727 231.879 445.781 232.251 445.916 233.074 444.53 232.241 444.33 232.11 443.574 231.664 443.02 231.15 442.474 230.402 442.262 230.113 441.827 229.551 441.858 229.255 441.887 228.959 442.52 228.791 442.935 228.678 445.354 228.01 448.14 227.754 450.833 228.316 451.197 228.393 451.616 228.537 452.04 228.678 452.394 228.791 453.052 228.938 453.096 229.199 453.152 229.54 452.534 230.348 452.394 230.546 451.78 231.389 451.147 231.914 450.193 232.36 449.746 232.562 449.238 232.793 448.659 232.778ZM442.606 229.444C442.97 230.152 443.482 230.694 444.061 231.179 444.451 231.037 444.875 230.919 445.327 230.848 445.148 230.673 444.923 230.573 444.68 230.377 444.5 230.24 444.153 230.036 444.167 229.751 444.19 229.449 444.819 229.295 445.244 229.199 446.654 228.878 448.309 228.918 449.656 229.22 450.075 229.322 450.785 229.434 450.785 229.776 450.785 229.969 450.464 230.25 450.295 230.377 450.064 230.573 449.806 230.592 449.656 230.848 450.156 230.883 450.535 231.046 450.943 231.179 451.551 230.746 452.009 230.159 452.338 229.444 449.775 228.347 445.202 228.422 442.606 229.444ZM445.138 229.919C446.185 230.852 448.738 230.852 449.785 229.919 448.538 229.501 446.381 229.501 445.138 229.919Z" fill="#6A005F" fill-rule="evenodd" transform="matrix(1 0 0 1.00975 346.126 264.215)"/><path d="M429.587 248.414C429.587 248.356 429.562 248.281 429.537 248.168 429.508 248.064 429.483 247.987 429.454 247.956 429.408 247.887 429.323 247.837 429.188 247.818 429.056 247.798 428.896 247.783 428.696 247.783L425.823 247.783 425.823 247.541 429.027 245.216 427.005 245.216C426.78 245.216 426.61 245.226 426.489 245.255 426.364 245.28 426.279 245.32 426.229 245.388 426.189 245.428 426.147 245.515 426.118 245.644 426.079 245.771 426.058 245.857 426.058 245.894L425.866 245.894 425.866 244.324 426.058 244.324C426.068 244.372 426.079 244.455 426.118 244.566 426.147 244.682 426.179 244.753 426.2 244.782 426.249 244.847 426.329 244.895 426.429 244.909 426.539 244.934 426.72 244.953 426.98 244.953L428.906 244.953C428.988 244.953 429.073 244.934 429.158 244.905 429.248 244.876 429.308 244.841 429.358 244.791 429.419 244.718 429.469 244.628 429.514 244.526 429.558 244.418 429.579 244.322 429.589 244.249L429.779 244.249 429.779 245.353 426.789 247.512 428.657 247.512C428.881 247.512 429.063 247.506 429.183 247.473 429.308 247.452 429.387 247.404 429.429 247.344 429.462 247.296 429.498 247.221 429.529 247.102 429.558 246.983 429.579 246.896 429.587 246.842L429.779 246.842 429.779 248.414 429.587 248.414Z" fill="#6A005F" fill-rule="evenodd" transform="matrix(1 0 0 1.00975 346.126 264.215)"/><path d="M426.233 252.995 426.062 251.41 426.258 251.392C426.283 251.529 426.314 251.648 426.354 251.735 426.383 251.825 426.422 251.862 426.474 251.862 426.485 251.862 426.504 251.858 426.524 251.848 426.543 251.843 426.568 251.839 426.583 251.825L427.424 251.425 427.291 250.082C427.153 250.042 427.039 250.009 426.943 249.992 426.843 249.969 426.753 249.944 426.674 249.934 426.583 249.915 426.524 249.915 426.474 249.905 426.422 249.905 426.383 249.905 426.354 249.905 426.279 249.915 426.233 249.969 426.2 250.092 426.174 250.211 426.164 250.334 426.168 250.475L425.975 250.496 425.823 249.049 426.018 249.039C426.029 249.082 426.043 249.143 426.068 249.216 426.093 249.28 426.122 249.334 426.164 249.374 426.214 249.447 426.272 249.493 426.329 249.53 426.383 249.565 426.464 249.595 426.564 249.626 427.074 249.767 427.645 249.915 428.276 250.096 428.906 250.263 429.467 250.417 429.966 250.554L429.987 250.767 426.76 252.381C426.693 252.406 426.635 252.445 426.593 252.483 426.553 252.524 426.514 252.576 426.485 252.647 426.464 252.691 426.443 252.745 426.439 252.81 426.422 252.878 426.422 252.932 426.422 252.98L426.233 252.995ZM427.655 251.302 429.111 250.573 427.545 250.15 427.655 251.302Z" fill="#6A005F" fill-rule="evenodd" transform="matrix(1 0 0 1.00975 346.126 264.215)"/><path d="M430.83 256.968C430.82 256.922 430.789 256.843 430.739 256.741 430.689 256.651 430.637 256.581 430.601 256.539 430.545 256.489 430.445 256.464 430.308 256.464 430.181 256.47 430.008 256.495 429.81 256.539L426.97 257.159 426.92 256.926 429.575 253.905 427.576 254.338C427.351 254.384 427.184 254.438 427.072 254.494 426.955 254.554 426.878 254.615 426.839 254.681 426.808 254.731 426.787 254.827 426.787 254.958 426.776 255.104 426.776 255.194 426.787 255.225L426.595 255.275 426.239 253.699 426.433 253.653C426.451 253.703 426.493 253.78 426.549 253.89 426.606 254.001 426.645 254.061 426.681 254.086 426.747 254.146 426.828 254.167 426.939 254.167 427.051 254.167 427.234 254.146 427.488 254.086L429.394 253.667C429.479 253.649 429.56 253.617 429.642 253.572 429.712 253.522 429.768 253.468 429.804 253.411 429.854 253.336 429.885 253.224 429.906 253.114 429.916 252.989 429.921 252.893 429.91 252.826L430.104 252.787 430.352 253.88 427.874 256.695 429.712 256.283C429.948 256.233 430.108 256.187 430.231 256.125 430.347 256.075 430.414 256.02 430.445 255.95 430.464 255.893 430.485 255.8 430.489 255.683 430.495 255.562 430.495 255.467 430.485 255.417L430.676 255.367 431.028 256.932 430.83 256.968Z" fill="#6A005F" fill-rule="evenodd" transform="matrix(1 0 0 1.00975 346.126 264.215)"/><path d="M431.909 259.319C431.88 259.275 431.84 259.223 431.797 259.169 431.749 259.117 431.705 259.073 431.665 259.033 431.611 258.99 431.563 258.967 431.511 258.981 431.461 258.986 431.403 259 431.353 259.033L429.4 260.143C429.298 260.202 429.181 260.245 429.04 260.264 428.904 260.289 428.767 260.289 428.632 260.264 428.475 260.227 428.33 260.172 428.194 260.081 428.067 259.989 427.955 259.854 427.857 259.696 427.717 259.454 427.663 259.212 427.717 258.967 427.776 258.729 427.911 258.546 428.159 258.411 428.257 258.355 428.369 258.323 428.486 258.323 428.592 258.334 428.679 258.392 428.748 258.498 428.792 258.594 428.811 258.671 428.788 258.759 428.777 258.846 428.719 258.913 428.636 258.967 428.584 258.996 428.523 259.015 428.465 259.025 428.407 259.033 428.355 259.033 428.3 259.033 428.246 259.029 428.194 259.029 428.126 259.029 428.063 259.025 428.005 259.029 427.959 259.033 427.932 259.092 427.911 259.169 427.911 259.265 427.911 259.356 427.947 259.454 428.009 259.569 428.078 259.685 428.165 259.758 428.253 259.798 428.344 259.839 428.446 259.854 428.552 259.839 428.65 259.831 428.767 259.798 428.894 259.743 429.021 259.685 429.156 259.627 429.298 259.546L431.043 258.546C431.091 258.513 431.134 258.48 431.159 258.45 431.189 258.407 431.199 258.355 431.199 258.282 431.193 258.219 431.174 258.146 431.151 258.065 431.12 257.986 431.091 257.928 431.068 257.876L431.239 257.784 432.069 259.223 431.909 259.319Z" fill="#6A005F" fill-rule="evenodd" transform="matrix(1 0 0 1.00975 346.126 264.215)"/><path d="M430.635 263.823 429.571 262.434 429.721 262.315C429.76 262.348 429.812 262.409 429.866 262.48 429.931 262.544 429.981 262.592 430.01 262.619 430.07 262.648 430.12 262.659 430.17 262.659 430.22 262.648 430.277 262.627 430.331 262.588L432.575 260.876C432.627 260.841 432.667 260.801 432.692 260.758 432.711 260.718 432.711 260.658 432.692 260.578 432.671 260.518 432.648 260.449 432.613 260.374 432.575 260.299 432.546 260.245 432.517 260.195L432.671 260.075 433.735 261.463 433.575 261.582C433.546 261.538 433.496 261.493 433.442 261.438 433.385 261.378 433.331 261.334 433.275 261.299 433.227 261.259 433.167 261.245 433.111 261.255 433.056 261.264 433.006 261.288 432.956 261.324L430.714 263.036C430.67 263.071 430.631 263.11 430.61 263.16 430.591 263.215 430.585 263.265 430.599 263.34 430.616 263.369 430.645 263.439 430.681 263.508 430.72 263.594 430.755 263.658 430.789 263.702L430.635 263.823Z" fill="#6A005F" fill-rule="evenodd" transform="matrix(1 0 0 1.00975 346.126 264.215)"/><path d="M437.356 265.137C437.315 265.101 437.246 265.057 437.158 265.003 437.059 264.955 436.99 264.926 436.932 264.916 436.852 264.905 436.763 264.935 436.655 265.009 436.557 265.091 436.428 265.199 436.301 265.341L434.343 267.362 434.177 267.202 434.66 263.348 433.288 264.77C433.136 264.935 433.027 265.057 432.963 265.17 432.902 265.274 432.877 265.37 432.884 265.438 432.884 265.503 432.921 265.584 432.992 265.697 433.061 265.809 433.111 265.882 433.14 265.913L433.011 266.049 431.861 264.964 432.001 264.833C432.034 264.868 432.103 264.905 432.211 264.96 432.321 265.018 432.39 265.053 432.43 265.053 432.513 265.057 432.596 265.032 432.686 264.964 432.769 264.905 432.902 264.793 433.071 264.614L434.393 263.25C434.443 263.188 434.491 263.129 434.531 263.046 434.566 262.963 434.583 262.894 434.576 262.831 434.57 262.734 434.541 262.64 434.491 262.538 434.437 262.425 434.393 262.353 434.343 262.294L434.472 262.157 435.272 262.915 434.818 266.498 436.082 265.189C436.234 265.024 436.348 264.887 436.407 264.789 436.467 264.683 436.486 264.593 436.486 264.524 436.467 264.472 436.428 264.383 436.367 264.285 436.309 264.187 436.259 264.114 436.221 264.066L436.348 263.929 437.483 264.999 437.356 265.137Z" fill="#6A005F" fill-rule="evenodd" transform="matrix(1 0 0 1.00975 346.126 264.215)"/><path d="M439.539 269.066C439.499 269.045 439.439 269.02 439.38 268.987 439.312 268.957 439.257 268.937 439.207 268.926 439.143 268.926 439.093 268.932 439.041 268.962 439.001 268.987 438.958 269.03 438.918 269.091L438.749 269.336C438.631 269.52 438.543 269.638 438.51 269.703 438.464 269.774 438.435 269.817 438.416 269.861 438.15 269.817 437.904 269.757 437.677 269.668 437.45 269.574 437.236 269.476 437.048 269.353 436.846 269.203 436.673 269.037 436.542 268.833 436.398 268.626 436.311 268.408 436.265 268.177 436.221 267.923 436.221 267.677 436.282 267.419 436.33 267.163 436.438 266.896 436.615 266.648 436.773 266.4 436.969 266.203 437.192 266.051 437.412 265.897 437.648 265.792 437.893 265.738 438.135 265.684 438.387 265.684 438.637 265.732 438.887 265.782 439.134 265.886 439.351 266.034 439.528 266.159 439.676 266.286 439.784 266.425 439.882 266.559 439.961 266.684 440.03 266.817L440.215 266.723 440.398 266.85 439.665 267.983 439.488 267.854C439.539 267.706 439.576 267.573 439.605 267.415 439.645 267.26 439.655 267.117 439.645 266.965 439.636 266.821 439.597 266.684 439.528 266.559 439.464 266.436 439.351 266.317 439.214 266.217 439.045 266.115 438.887 266.044 438.716 266.026 438.543 266.005 438.366 266.026 438.189 266.094 438.012 266.155 437.835 266.263 437.669 266.425 437.492 266.58 437.323 266.763 437.167 266.99 437.034 267.192 436.929 267.4 436.857 267.616 436.784 267.829 436.752 268.037 436.752 268.231 436.757 268.422 436.802 268.612 436.89 268.785 436.979 268.947 437.113 269.095 437.285 269.22 437.421 269.307 437.55 269.376 437.687 269.397 437.825 269.426 437.933 269.447 438.002 269.426 438.07 269.353 438.131 269.289 438.185 269.203 438.239 269.124 438.287 269.055 438.322 269.007L438.435 268.828C438.485 268.764 438.514 268.703 438.524 268.645 438.543 268.587 438.539 268.522 438.495 268.462 438.456 268.408 438.406 268.339 438.333 268.275 438.247 268.206 438.189 268.152 438.141 268.127L438.247 267.948 439.651 268.903 439.539 269.066Z" fill="#6A005F" fill-rule="evenodd" transform="matrix(1 0 0 1.00975 346.126 264.215)"/><path d="M449.352 269.851C449.3 269.851 449.227 269.861 449.123 269.884 449.019 269.905 448.936 269.93 448.869 269.969 448.802 270.013 448.761 270.101 448.738 270.23 448.713 270.359 448.698 270.517 448.698 270.704L448.698 272.385C448.698 272.591 448.65 272.778 448.557 272.937 448.459 273.101 448.34 273.228 448.188 273.332 448.042 273.426 447.882 273.505 447.711 273.538 447.545 273.588 447.391 273.609 447.232 273.609 446.995 273.609 446.772 273.58 446.585 273.516 446.393 273.457 446.237 273.372 446.102 273.268 445.977 273.164 445.879 273.051 445.821 272.912 445.75 272.778 445.717 272.641 445.717 272.497L445.717 270.226C445.717 270.153 445.706 270.101 445.687 270.057 445.667 270.013 445.619 269.974 445.552 269.944 445.51 269.915 445.448 269.89 445.369 269.874 445.292 269.861 445.229 269.851 445.188 269.851L445.188 269.653 446.87 269.653 446.87 269.851C446.818 269.851 446.749 269.855 446.672 269.87 446.589 269.884 446.533 269.905 446.495 269.915 446.424 269.93 446.381 269.974 446.366 270.017 446.341 270.078 446.331 270.136 446.331 270.196L446.331 272.32C446.331 272.418 446.341 272.533 446.366 272.641 446.391 272.756 446.439 272.858 446.506 272.962 446.585 273.062 446.683 273.141 446.812 273.199 446.943 273.264 447.107 273.303 447.339 273.303 447.545 273.303 447.722 273.264 447.865 273.199 448.003 273.141 448.122 273.062 448.199 272.957 448.271 272.858 448.334 272.756 448.369 272.645 448.396 272.537 448.417 272.439 448.417 272.324L448.417 270.748C448.417 270.542 448.396 270.378 448.369 270.251 448.334 270.128 448.292 270.038 448.24 269.999 448.167 269.953 448.074 269.919 447.965 269.89 447.845 269.87 447.757 269.851 447.695 269.851L447.695 269.653 449.352 269.653 449.352 269.851Z" fill="#6A005F" fill-rule="evenodd" transform="matrix(1 0 0 1.00975 346.126 264.215)"/><path d="M453.858 267.735C453.814 267.764 453.746 267.804 453.667 267.875 453.577 267.948 453.519 268.004 453.49 268.048 453.45 268.112 453.446 268.208 453.479 268.331 453.504 268.466 453.558 268.62 453.635 268.799L454.766 271.404 454.545 271.508 451.151 269.534 451.945 271.369C452.028 271.573 452.107 271.727 452.186 271.821 452.261 271.931 452.336 271.985 452.405 272.006 452.463 272.031 452.557 272.031 452.686 272.006 452.819 271.991 452.907 271.971 452.946 271.956L453.025 272.135 451.57 272.776 451.491 272.591C451.541 272.572 451.605 272.518 451.703 272.437 451.793 272.368 451.847 272.308 451.865 272.279 451.905 272.21 451.911 272.114 451.89 272.006 451.872 271.902 451.811 271.741 451.713 271.498L450.953 269.749C450.914 269.674 450.874 269.595 450.816 269.534 450.756 269.474 450.697 269.43 450.629 269.405 450.549 269.384 450.445 269.361 450.331 269.37 450.208 269.38 450.114 269.395 450.052 269.426L449.977 269.241 450.983 268.799 454.139 270.638 453.41 268.943C453.321 268.739 453.238 268.585 453.163 268.481 453.09 268.377 453.019 268.32 452.95 268.312 452.888 268.291 452.809 268.291 452.684 268.312 452.571 268.331 452.482 268.356 452.424 268.377L452.349 268.191 453.785 267.571 453.858 267.735Z" fill="#6A005F" fill-rule="evenodd" transform="matrix(1 0 0 1.00975 346.126 264.215)"/><path d="M457.681 270.115 456.084 270.902 455.999 270.723C456.045 270.702 456.105 270.657 456.19 270.617 456.272 270.565 456.328 270.519 456.353 270.492 456.392 270.438 456.424 270.386 456.428 270.336 456.432 270.284 456.424 270.223 456.392 270.167L455.128 267.571C455.108 267.51 455.072 267.458 455.037 267.429 454.997 267.402 454.937 267.392 454.856 267.398 454.795 267.402 454.724 267.419 454.643 267.429 454.552 267.454 454.491 267.475 454.441 267.496L454.35 267.317 455.953 266.53 456.038 266.709C455.988 266.734 455.932 266.775 455.861 266.817 455.797 266.856 455.734 266.902 455.695 266.952 455.645 267 455.614 267.067 455.614 267.123 455.614 267.169 455.634 267.225 455.653 267.281L456.909 269.876C456.934 269.932 456.969 269.978 457.019 270.003 457.061 270.038 457.121 270.049 457.192 270.044 457.231 270.044 457.298 270.034 457.383 270.003 457.465 269.982 457.54 269.957 457.596 269.936L457.681 270.115Z" fill="#6A005F" fill-rule="evenodd" transform="matrix(1 0 0 1.00975 346.126 264.215)"/><path d="M459.566 263.966C459.53 264.006 459.487 264.05 459.447 264.104 459.41 264.158 459.384 264.222 459.37 264.268 459.347 264.337 459.33 264.395 459.347 264.47 459.355 264.535 459.37 264.618 459.391 264.701 459.476 265.007 459.614 265.474 459.797 266.094 459.99 266.723 460.184 267.375 460.388 268.058L460.217 268.195C459.589 267.814 458.983 267.45 458.4 267.083 457.808 266.727 457.417 266.492 457.209 266.363 457.159 266.338 457.107 266.313 457.048 266.298 456.994 266.294 456.936 266.294 456.869 266.298 456.811 266.309 456.753 266.323 456.698 266.346 456.646 266.373 456.596 266.403 456.553 266.421L456.432 266.273 457.654 265.28 457.779 265.428C457.673 265.522 457.596 265.607 457.538 265.676 457.479 265.749 457.469 265.805 457.5 265.842 457.508 265.863 457.529 265.882 457.546 265.892 457.571 265.913 457.585 265.928 457.606 265.938 457.76 266.036 458.023 266.184 458.385 266.407 458.749 266.638 459.264 266.944 459.932 267.346 459.826 267 459.709 266.59 459.568 266.119 459.422 265.651 459.322 265.334 459.262 265.162 459.21 264.989 459.166 264.885 459.137 264.835 459.103 264.776 459.074 264.733 459.056 264.697 459.031 264.662 458.991 264.647 458.943 264.651 458.895 264.651 458.847 264.662 458.789 264.687 458.731 264.712 458.67 264.741 458.614 264.776 458.564 264.805 458.516 264.835 458.468 264.87L458.343 264.716 459.447 263.823 459.566 263.966Z" fill="#6A005F" fill-rule="evenodd" transform="matrix(1 0 0 1.00975 346.126 264.215)"/><path d="M463.938 262.646 464.761 263.431 462.714 265.905 462.566 265.786C462.6 265.74 462.639 265.676 462.693 265.601 462.737 265.522 462.768 265.474 462.772 265.432 462.791 265.378 462.787 265.328 462.772 265.284 462.752 265.234 462.714 265.189 462.664 265.149L460.542 263.356C460.496 263.317 460.449 263.292 460.399 263.281 460.355 263.267 460.301 263.273 460.232 263.302 460.182 263.321 460.132 263.367 460.063 263.41 459.995 263.467 459.947 263.51 459.905 263.546L459.763 263.431 461.669 261.116 462.379 261.717 462.25 261.876C462.123 261.811 461.954 261.776 461.767 261.776 461.565 261.772 461.427 261.807 461.35 261.876 461.304 261.915 461.265 261.965 461.206 262.015 461.157 262.069 461.098 262.144 461.03 262.219L460.655 262.69 461.817 263.675 462.102 263.342C462.187 263.237 462.246 263.148 462.271 263.083 462.289 263.013 462.289 262.94 462.271 262.869 462.26 262.8 462.225 262.729 462.171 262.646 462.123 262.571 462.073 262.502 462.023 262.442L462.152 262.288 463.303 263.263 463.18 263.41C463.106 263.371 463.022 263.321 462.931 263.287 462.841 263.248 462.762 263.227 462.704 263.223 462.614 263.223 462.535 263.242 462.477 263.287 462.408 263.323 462.343 263.392 462.271 263.492L461.983 263.818 462.881 264.564C462.97 264.643 463.037 264.693 463.101 264.722 463.166 264.758 463.224 264.758 463.285 264.753 463.335 264.737 463.397 264.697 463.462 264.643 463.509 264.589 463.589 264.493 463.693 264.374 463.722 264.331 463.776 264.281 463.836 264.195 463.903 264.131 463.953 264.062 463.986 264.002 464.032 263.948 464.061 263.873 464.097 263.804 464.13 263.743 464.14 263.683 464.13 263.644 464.13 263.521 464.082 263.371 463.999 263.177 463.924 262.998 463.859 262.875 463.816 262.794L463.938 262.646Z" fill="#6A005F" fill-rule="evenodd" transform="matrix(1 0 0 1.00975 346.126 264.215)"/><path d="M467.26 259.058 466.745 259.96C466.296 260 465.904 260.035 465.573 260.079 465.244 260.11 464.894 260.16 464.532 260.218L464.332 260.566 465.45 261.151C465.513 261.18 465.569 261.199 465.615 261.205 465.677 261.205 465.729 261.191 465.785 261.145 465.817 261.12 465.852 261.072 465.904 261.007 465.954 260.947 465.996 260.882 466.023 260.828L466.202 260.922 465.388 262.365 465.213 262.271C465.234 262.232 465.254 262.171 465.29 262.092 465.325 262.017 465.336 261.969 465.342 261.934 465.346 261.874 465.336 261.83 465.304 261.78 465.275 261.736 465.227 261.701 465.171 261.661L462.604 260.322C462.552 260.302 462.491 260.283 462.439 260.272 462.383 260.262 462.325 260.283 462.273 260.322 462.233 260.362 462.191 260.412 462.146 260.466 462.094 260.52 462.048 260.57 462.027 260.616L461.846 260.531 462.737 258.948C462.82 258.804 462.904 258.671 463.006 258.577 463.11 258.463 463.222 258.373 463.351 258.3 463.47 258.234 463.603 258.205 463.749 258.201 463.882 258.201 464.032 258.23 464.182 258.315 464.322 258.388 464.43 258.473 464.511 258.567 464.594 258.657 464.651 258.761 464.686 258.884 464.717 258.994 464.728 259.113 464.728 259.242 464.717 259.36 464.696 259.5 464.667 259.637 464.996 259.594 465.275 259.554 465.492 259.529 465.708 259.5 465.975 259.46 466.296 259.421 466.435 259.4 466.55 259.375 466.62 259.35 466.708 259.31 466.77 259.281 466.833 259.235 466.883 259.202 466.924 259.156 466.976 259.102 467.022 259.048 467.053 258.998 467.078 258.963L467.26 259.058ZM463.909 258.938C463.693 258.825 463.491 258.794 463.295 258.85 463.11 258.904 462.949 259.044 462.831 259.256L462.593 259.669 464.12 260.451 464.294 260.139C464.419 259.92 464.449 259.698 464.388 259.475 464.322 259.246 464.161 259.077 463.909 258.938Z" fill="#6A005F" fill-rule="evenodd" transform="matrix(1 0 0 1.00975 346.126 264.215)"/><path d="M466.125 255.66C466.231 255.602 466.339 255.571 466.452 255.562 466.568 255.552 466.691 255.562 466.827 255.602 467.16 255.681 467.393 255.873 467.541 256.174 467.687 256.476 467.716 256.803 467.622 257.168 467.578 257.326 467.512 257.495 467.422 257.647 467.324 257.811 467.226 257.926 467.12 258.028L467.283 258.192 467.228 258.409 465.958 258.107 466.017 257.894C466.183 257.894 466.329 257.876 466.475 257.844 466.618 257.826 466.749 257.782 466.885 257.717 467.012 257.647 467.12 257.559 467.212 257.459 467.305 257.351 467.368 257.222 467.414 257.055 467.441 256.935 467.457 256.818 467.447 256.728 467.443 256.624 467.414 256.545 467.368 256.476 467.324 256.397 467.266 256.339 467.208 256.289 467.131 256.243 467.043 256.204 466.945 256.174 466.797 256.145 466.645 256.145 466.5 256.193 466.348 256.249 466.223 256.354 466.114 256.501 466.035 256.605 465.954 256.718 465.86 256.857 465.773 256.98 465.685 257.103 465.606 257.203 465.461 257.386 465.298 257.509 465.113 257.588 464.932 257.667 464.717 257.672 464.478 257.613 464.336 257.574 464.215 257.505 464.103 257.415 464.001 257.322 463.911 257.222 463.847 257.084 463.78 256.96 463.741 256.818 463.726 256.674 463.711 256.516 463.722 256.368 463.761 256.214 463.809 256.045 463.868 255.893 463.955 255.775 464.043 255.65 464.132 255.541 464.24 255.458L464.082 255.294 464.132 255.077 465.367 255.383 465.313 255.602C465.167 255.602 465.021 255.606 464.88 255.621 464.738 255.635 464.611 255.664 464.482 255.714 464.361 255.764 464.263 255.837 464.172 255.933 464.082 256.027 464.024 256.145 463.976 256.304 463.936 256.476 463.955 256.635 464.024 256.772 464.103 256.916 464.22 257.009 464.365 257.055 464.528 257.099 464.667 257.089 464.796 257.045 464.921 256.999 465.036 256.905 465.138 256.787 465.229 256.674 465.313 256.56 465.392 256.447 465.469 256.333 465.548 256.229 465.627 256.125 465.694 256.035 465.773 255.941 465.856 255.862 465.939 255.785 466.027 255.71 466.125 255.66Z" fill="#6A005F" fill-rule="evenodd" transform="matrix(1 0 0 1.00975 346.126 264.215)"/><path d="M468.509 253.109 468.265 254.869 468.068 254.842C468.074 254.784 468.078 254.717 468.084 254.621 468.093 254.525 468.088 254.465 468.078 254.413 468.063 254.359 468.034 254.307 467.997 254.271 467.961 254.236 467.901 254.217 467.83 254.207L464.988 253.828C464.921 253.822 464.871 253.828 464.825 253.828 464.78 253.846 464.73 253.888 464.694 253.963 464.669 254.013 464.634 254.076 464.607 254.161 464.578 254.236 464.549 254.307 464.538 254.363L464.344 254.338 464.588 252.578 464.78 252.603C464.776 252.655 464.776 252.724 464.776 252.805 464.776 252.891 464.78 252.957 464.79 253.022 464.807 253.089 464.836 253.139 464.882 253.176 464.928 253.205 464.984 253.226 465.044 253.226L467.88 253.62C467.943 253.63 467.993 253.62 468.043 253.605 468.099 253.584 468.145 253.538 468.176 253.474 468.195 253.443 468.226 253.382 468.251 253.301 468.286 253.216 468.301 253.139 468.311 253.078L468.509 253.109Z" fill="#6A005F" fill-rule="evenodd" transform="matrix(1 0 0 1.00975 346.126 264.215)"/><path d="M465.935 248.462 465.927 248.651C465.856 248.666 465.779 248.697 465.694 248.739 465.6 248.78 465.511 248.826 465.431 248.872 465.354 248.928 465.275 248.984 465.215 249.057 465.146 249.118 465.107 249.18 465.096 249.247 465.086 249.303 465.077 249.376 465.067 249.463 465.067 249.551 465.057 249.636 465.057 249.709L465.046 249.878 468.134 249.992C468.192 249.992 468.249 249.986 468.297 249.961 468.357 249.94 468.386 249.888 468.415 249.828 468.434 249.797 468.455 249.73 468.484 249.617 468.505 249.509 468.519 249.432 468.524 249.37L468.717 249.376 468.642 251.271 468.455 251.26C468.455 251.215 468.444 251.123 468.44 251.019 468.436 250.906 468.426 250.84 468.405 250.794 468.386 250.738 468.357 250.679 468.311 250.65 468.267 250.619 468.207 250.602 468.134 250.598L465.027 250.475 465.017 250.644C465.017 250.706 465.017 250.767 465.017 250.861 465.017 250.942 465.017 251.029 465.027 251.102 465.032 251.169 465.067 251.235 465.125 251.306 465.186 251.373 465.261 251.439 465.338 251.496 465.413 251.554 465.502 251.614 465.592 251.66 465.679 251.708 465.758 251.737 465.819 251.754L465.808 251.954 464.761 251.912 464.888 248.414 465.935 248.462Z" fill="#6A005F" fill-rule="evenodd" transform="matrix(1 0 0 1.00975 346.126 264.215)"/><path d="M465.225 244.249C465.229 244.274 465.244 244.328 465.254 244.401 465.286 244.466 465.304 244.52 465.325 244.545 465.365 244.62 465.4 244.666 465.421 244.697 465.446 244.722 465.511 244.772 465.604 244.841 465.81 244.997 466.01 245.128 466.216 245.257 466.42 245.378 466.685 245.53 466.995 245.719 467.116 245.794 467.21 245.844 467.28 245.861 467.355 245.896 467.455 245.905 467.591 245.905L468.334 245.915C468.401 245.915 468.465 245.905 468.515 245.876 468.555 245.851 468.594 245.805 468.626 245.751 468.646 245.705 468.665 245.634 468.684 245.538 468.705 245.438 468.719 245.368 468.726 245.303L468.925 245.303 468.886 247.14 468.694 247.129C468.694 247.079 468.684 247.008 468.676 246.904 468.669 246.804 468.655 246.734 468.64 246.688 468.615 246.617 468.574 246.577 468.534 246.548 468.486 246.517 468.426 246.507 468.355 246.507L467.405 246.498C467.374 246.486 467.324 246.507 467.245 246.542 467.164 246.577 467.074 246.613 466.985 246.663 466.764 246.773 466.529 246.894 466.285 247.019 466.035 247.15 465.819 247.264 465.64 247.364 465.533 247.414 465.454 247.464 465.4 247.525 465.344 247.566 465.304 247.616 465.254 247.677 465.229 247.72 465.204 247.777 465.196 247.837 465.175 247.897 465.165 247.952 465.161 247.997L464.969 247.997 464.994 246.321 465.196 246.321C465.196 246.513 465.204 246.648 465.223 246.734 465.244 246.804 465.275 246.844 465.315 246.848 465.325 246.848 465.344 246.844 465.365 246.833 465.394 246.823 465.436 246.804 465.475 246.788 465.525 246.763 465.583 246.734 465.64 246.702 465.704 246.673 465.765 246.644 465.819 246.609 465.985 246.523 466.154 246.442 466.314 246.352 466.475 246.271 466.689 246.15 466.954 246.011 466.495 245.719 466.139 245.488 465.875 245.334 465.625 245.178 465.469 245.103 465.419 245.103 465.375 245.103 465.34 245.113 465.315 245.149 465.29 245.168 465.275 245.213 465.254 245.263 465.234 245.318 465.223 245.374 465.219 245.438 465.215 245.499 465.215 245.563 465.204 245.615L465.005 245.615 465.034 244.249 465.225 244.249Z" fill="#6A005F" fill-rule="evenodd" transform="matrix(1 0 0 1.00975 346.126 264.215)"/><path d="M445.929 260.283C445.785 260.283 445.664 260.345 445.556 260.468 445.446 260.589 445.396 260.749 445.396 260.947 445.396 261.118 445.446 261.264 445.546 261.372 445.646 261.48 445.775 261.532 445.925 261.532 446.073 261.532 446.193 261.48 446.293 261.372 446.393 261.264 446.437 261.107 446.437 260.916 446.437 260.722 446.393 260.572 446.281 260.458 446.193 260.345 446.068 260.283 445.929 260.283Z" fill="#6A005F" fill-rule="evenodd" transform="matrix(1 0 0 1.00975 346.126 264.215)"/><path d="M448.407 260.283C448.269 260.283 448.151 260.345 448.057 260.489 447.955 260.651 447.895 260.968 447.895 261.432 447.895 261.892 447.945 262.188 448.042 262.34 448.151 262.498 448.269 262.573 448.415 262.573 448.553 262.573 448.682 262.498 448.784 262.34 448.882 262.188 448.936 261.892 448.936 261.432 448.936 260.968 448.882 260.668 448.784 260.514 448.682 260.366 448.553 260.283 448.407 260.283Z" fill="#6A005F" fill-rule="evenodd" transform="matrix(1 0 0 1.00975 346.126 264.215)"/><path d="M462.858 234.671C452.551 234.671 442.231 234.671 431.922 234.671 431.882 234.675 431.892 234.725 431.872 234.756 431.842 238.756 431.886 242.877 431.872 246.771 431.842 250.717 432.411 254.284 433.685 257.091 434.935 259.87 436.988 261.869 439.316 263.55 441.685 265.241 444.648 266.149 447.384 267.571 450.11 266.138 453.065 265.247 455.424 263.514 457.754 261.819 459.859 259.875 461.094 257.066 462.325 254.248 462.879 250.777 462.879 246.717 462.879 242.796 462.908 238.638 462.858 234.671ZM439.014 252.343C441.115 251.246 443.222 250.038 444.867 248.443 443.776 248.712 442.903 248.741 442.002 248.732 442.152 248.493 442.397 248.343 442.597 248.147 443.984 246.842 445.542 245.594 446.293 243.614 445.785 243.789 445.144 243.933 444.455 243.933 445.808 242.188 446.874 240.139 447.439 237.609 447.464 237.609 447.495 237.609 447.518 237.609 448.074 240.147 449.159 242.173 450.508 243.933 449.902 243.893 449.396 243.868 448.698 243.596 448.728 243.889 448.882 244.168 449.011 244.422 449.679 245.659 450.756 246.642 451.757 247.593 452.163 247.972 452.598 248.308 452.957 248.732 451.845 248.832 451.339 248.741 450.121 248.416 450.516 248.891 451.037 249.241 451.518 249.624 452.827 250.702 454.393 251.504 455.968 252.343 456.092 252.408 456.286 252.451 456.336 252.618 455.028 252.801 453.575 252.701 452.163 252.247 450.437 251.65 448.802 251.614 447.593 252.751 446.245 251.658 444.911 251.643 442.756 252.218 441.527 252.601 439.92 252.776 438.626 252.618 438.672 252.437 438.878 252.412 439.014 252.343ZM443.797 262.727 443.474 262.727 443.474 260.668C443.395 260.753 443.291 260.812 443.162 260.876 443.043 260.962 442.935 261.018 442.831 261.057L442.831 260.753C443.012 260.658 443.162 260.553 443.301 260.433 443.439 260.304 443.532 260.193 443.589 260.085L443.797 260.085 443.797 262.727ZM446.662 262.159C446.583 262.359 446.472 262.513 446.335 262.613 446.185 262.717 446.016 262.773 445.829 262.773 445.621 262.773 445.452 262.717 445.323 262.598 445.194 262.488 445.115 262.328 445.086 262.113L445.392 262.084C445.421 262.234 445.477 262.342 445.552 262.409 445.621 262.484 445.719 262.509 445.833 262.509 445.927 262.509 446.016 262.484 446.096 262.438 446.166 262.394 446.225 262.334 446.275 262.255 446.325 262.173 446.364 262.074 446.393 261.949 446.429 261.819 446.443 261.69 446.443 261.551 446.443 261.53 446.443 261.511 446.443 261.476 446.379 261.59 446.295 261.676 446.175 261.736 446.066 261.801 445.941 261.834 445.819 261.834 445.6 261.834 445.419 261.751 445.269 261.595 445.115 261.43 445.036 261.226 445.036 260.968 445.036 260.708 445.115 260.489 445.273 260.324 445.433 260.164 445.631 260.085 445.858 260.085 446.037 260.085 446.185 260.129 446.335 260.214 446.472 260.304 446.583 260.439 446.662 260.618 446.72 260.787 446.766 261.026 446.766 261.357 446.766 261.69 446.72 261.959 446.662 262.159ZM449.115 262.173C449.05 262.363 448.961 262.519 448.832 262.613 448.709 262.717 448.544 262.773 448.355 262.773 448.103 262.773 447.901 262.684 447.757 262.498 447.582 262.284 447.493 261.926 447.493 261.43 447.493 261.112 447.532 260.864 447.593 260.676 447.657 260.485 447.751 260.339 447.88 260.243 448.005 260.129 448.167 260.085 448.355 260.085 448.494 260.085 448.619 260.11 448.728 260.164 448.832 260.214 448.921 260.304 448.99 260.408 449.061 260.522 449.109 260.647 449.148 260.803 449.188 260.957 449.209 261.166 449.209 261.43 449.209 261.734 449.173 261.99 449.115 262.173ZM451.647 262.727 449.912 262.727C449.912 262.652 449.923 262.567 449.952 262.509 449.998 262.388 450.071 262.265 450.171 262.155 450.264 262.034 450.404 261.909 450.587 261.751 450.868 261.511 451.062 261.336 451.166 261.191 451.266 261.057 451.32 260.932 451.32 260.803 451.32 260.676 451.27 260.568 451.176 260.485 451.087 260.393 450.968 260.343 450.818 260.343 450.666 260.343 450.541 260.393 450.447 260.489 450.358 260.583 450.308 260.712 450.308 260.872L449.973 260.843C450.002 260.597 450.081 260.404 450.229 260.274 450.379 260.139 450.577 260.085 450.831 260.085 451.083 260.085 451.28 260.15 451.424 260.289 451.572 260.433 451.647 260.608 451.647 260.812 451.647 260.912 451.626 261.026 451.582 261.126 451.539 261.226 451.464 261.336 451.368 261.451 451.27 261.561 451.101 261.711 450.868 261.909 450.677 262.069 450.552 262.188 450.497 262.24 450.447 262.303 450.4 262.359 450.364 262.423L451.647 262.423 451.647 262.727ZM448.996 255.375 449.079 256.075 446.077 256.075 446.166 255.375 436.748 255.375 437.923 253.924C438.92 253.869 440.842 253.615 442.489 252.997 445.689 251.789 447.632 253.445 447.632 253.445 449.165 252.154 451.087 252.422 452.867 253.082 454.541 253.701 457.104 253.89 457.104 253.89L458.208 255.375 448.996 255.375Z" fill="#6A005F" fill-rule="evenodd" transform="matrix(1 0 0 1.00975 346.126 264.215)"/></g></svg>